<svg width="456" height="150" viewBox="0 0 456 150" fill="none" xmlns="http://www.w3.org/2000/svg">
<path d="M205.883 105.732C223.843 105.732 235.927 93.468 235.927 75.408C235.927 57.348 223.675 45 205.883 45H185.826V105.732H205.883ZM205.296 52.728C218.556 52.728 227.283 61.884 227.283 75.408C227.283 88.932 218.639 98.088 205.296 98.088H194.05V52.728H205.296Z" fill="white"/>
<path d="M242.362 85.152C242.362 97.5 250.754 106.74 263.343 106.74C275.931 106.74 284.323 97.5 284.323 85.152C284.323 72.804 275.931 63.564 263.343 63.564C250.754 63.564 242.362 72.804 242.362 85.152ZM250.335 85.152C250.335 76.752 255.454 70.62 263.343 70.62C271.231 70.62 276.35 76.752 276.35 85.152C276.35 93.552 271.231 99.684 263.343 99.684C255.454 99.684 250.335 93.552 250.335 85.152Z" fill="white"/>
<path d="M301.301 105.648V83.976C301.301 74.736 306.84 70.704 312.966 70.704C317.918 70.704 322.869 72.804 322.869 82.38V105.732H330.758V80.616C330.758 70.368 326.058 63.48 314.981 63.48C309.274 63.48 304.071 66.168 301.385 70.956L300.546 64.656H293.413V105.648H301.301Z" fill="white"/>
<path d="M339.65 84.144C339.65 95.736 347.119 104.64 358.7 104.64C365.078 104.64 370.617 101.868 373.387 97.08V105.228C373.387 112.956 368.435 118.08 360.63 118.08C353.833 118.08 349.049 114.552 348.042 108.504H340.238C341.664 118.752 349.469 125.22 360.295 125.22C372.883 125.22 381.023 116.904 381.023 104.052V64.656H374.226L373.638 71.376C370.953 66.336 365.582 63.48 359.036 63.48C347.203 63.48 339.65 72.552 339.65 84.144ZM347.623 83.976C347.623 76.416 352.406 70.368 359.959 70.368C368.016 70.368 372.883 76.5 372.883 83.976C372.883 91.536 367.932 97.752 359.959 97.752C352.49 97.752 347.623 91.704 347.623 83.976Z" fill="white"/>
<path d="M409.67 52.728H428.72V105.732H437.028V52.728H455.995V45H409.67V52.728Z" fill="#FF6A00"/>
<path d="M401.805 45H393.581V105.732H401.805V45Z" fill="#FF6A00"/>
<!--<rect width="149.86" height="150" fill="#FF6A00"/>-->
<path d="M96.4168 62.7663C97.1381 62.4205 97.8516 62.0853 98.565 61.7566L99.1751 61.4766L98.7418 61.1769L98.7614 61.1729L98.6187 61.073C97.8057 60.509 97.0006 59.9529 96.2112 59.3969C95.2255 59.8438 94.2253 60.3092 93.2212 60.7799L95.6143 62.2707C95.8813 62.4363 96.1484 62.6019 96.4168 62.7663Z" fill="white"/>
<path d="M75.3759 72.3971L76.0148 72.76C76.2609 72.8967 76.5083 73.0361 76.7597 73.1767L77.2637 72.8954C78.0897 72.4326 78.8948 71.9843 79.6895 71.5453L80.2197 71.256L79.3007 70.7223C78.472 70.2411 77.6224 69.7534 76.7597 69.2591C75.622 69.8993 74.4779 70.5474 73.3271 71.2021L73.4698 71.285C74.1218 71.6688 74.7502 72.0382 75.3759 72.3971Z" fill="white"/>
<path d="M70.1453 73.0192C69.5549 73.361 68.9619 73.7015 68.3649 74.0393L67.8491 74.3351C67.4564 74.5573 67.0636 74.7755 66.6709 74.9924L67.7614 75.5945C68.5665 76.0494 69.3598 76.5069 70.1388 76.967L70.3404 76.8527L70.3548 76.8632C70.9452 76.5214 71.5422 76.1704 72.1404 75.818L72.4324 75.6458C72.7963 75.4302 73.1655 75.212 73.5386 74.9938C72.9665 74.6638 72.3957 74.3325 71.8341 74.0038C71.2751 73.6752 70.7109 73.3465 70.1453 73.0192Z" fill="white"/>
<path d="M90.0919 65.9574C90.2503 65.8759 90.4087 65.7944 90.5671 65.7142L90.9337 65.5288C91.6772 65.1476 92.4117 64.7755 93.1343 64.4114C92.5583 64.0538 91.9914 63.7002 91.4351 63.3491L89.8824 62.3776C89.1768 62.7129 88.4647 63.0599 87.7342 63.4214L86.7144 63.9328C86.9788 64.0893 87.2406 64.247 87.5024 64.4035L90.0919 65.9574Z" fill="white"/>
<path d="M83.408 69.5061C84.2118 69.063 85.0077 68.6331 85.7945 68.2138L86.8222 67.6669L85.4725 66.8571C84.7577 66.4298 84.0809 66.0328 83.391 65.6305L83.3831 65.6344C82.739 65.9644 82.0923 66.3036 81.4521 66.6454L81.0018 66.8847C80.6366 67.0819 80.2713 67.2791 79.9087 67.4776L80.2163 67.655C81.3029 68.2821 82.3672 68.9 83.408 69.5061Z" fill="white"/>
<path d="M76.6792 80.7818L78.9702 79.4395C79.3695 79.2068 79.7727 78.9741 80.1785 78.7414C79.7832 78.5206 79.3865 78.2971 78.9885 78.071L76.6976 76.7787L76.6792 76.7892C75.7877 77.3019 74.8831 77.8291 74.0047 78.3497L73.252 78.7927L76.2132 80.5149C76.3729 80.6069 76.5274 80.695 76.6792 80.7818Z" fill="white"/>
<path d="M90.0159 73.2216C90.7516 72.8075 91.5043 72.3947 92.2636 71.9833L93.2638 71.4469L91.757 70.5674C91.1836 70.2308 90.5919 69.8917 89.991 69.5499C89.2055 69.9627 88.4096 70.3833 87.6058 70.8106L87.073 71.0972C86.9303 71.1748 86.785 71.2523 86.6396 71.3325C87.6215 71.8794 88.5863 72.4197 89.5223 72.9469L90.0159 73.2216Z" fill="white"/>
<path d="M86.7764 75.0076L83.4027 73.1251L83.3661 73.15L83.3255 73.1224C82.9603 73.3144 82.595 73.5116 82.2285 73.7101L81.3356 74.1899C80.8644 74.4502 80.3891 74.7118 79.9087 74.98C80.9796 75.5848 82.0308 76.175 83.0768 76.76L83.3713 76.9257C84.1529 76.4774 84.9462 76.0291 85.7408 75.5848L86.7384 75.0287C86.7515 75.0221 86.7633 75.0155 86.7764 75.0076Z" fill="white"/>
<path d="M98.2562 68.756C98.5821 68.5812 98.9055 68.4089 99.2262 68.2394L96.244 66.3528L93.2959 67.8305L96.5085 69.7078L98.2562 68.756Z" fill="white"/>
<path d="M100.186 64.4711L99.6711 64.7117C99.6397 64.7261 99.6082 64.7406 99.5781 64.755L102.453 66.5732C102.754 66.4286 103.05 66.284 103.342 66.1394C103.863 65.883 104.373 65.6332 104.871 65.3953C104.837 65.369 104.802 65.344 104.767 65.319L102.194 63.5561C101.522 63.8585 100.853 64.1635 100.186 64.4711Z" fill="white"/>
<path d="M83.5062 80.5741L83.4407 80.6254L83.3556 80.5662C82.7037 80.937 82.0413 81.3156 81.3841 81.6942L81.1471 81.8296C80.7164 82.0794 80.3067 82.3173 79.9087 82.5487C80.2726 82.7446 80.6392 82.9391 81.011 83.135L81.46 83.369C82.0884 83.699 82.7233 84.0237 83.37 84.3524L83.3923 84.3642C84.3257 83.8121 85.1779 83.3112 86 82.83L86.8366 82.3397C86.4753 82.149 86.11 81.9584 85.7435 81.7652L83.5062 80.5741Z" fill="white"/>
<path d="M93.1749 85.5605L92.2965 85.1227C91.5948 84.7665 90.8878 84.4063 90.1652 84.0355L89.6952 84.3142C89.0119 84.7191 88.318 85.1267 87.6019 85.5434L86.7144 86.0653L87.6229 86.536C88.3822 86.9225 89.1402 87.2971 89.8981 87.66L92.4679 86.0088C92.7036 85.8616 92.9379 85.7104 93.1749 85.5605Z" fill="white"/>
<path d="M86.8269 78.581C86.764 78.6165 86.7025 78.6506 86.6396 78.6861C87.0062 78.8807 87.3649 79.0713 87.7236 79.2593L88.17 79.492C88.8036 79.8272 89.4228 80.1441 90.0303 80.4543L93.2743 78.5823L90.0185 76.8115C89.25 77.2282 88.4724 77.6568 87.6896 78.0932L86.8269 78.581Z" fill="white"/>
<path d="M93.3701 82.1606L93.3714 82.162L94.1307 82.5485C94.8468 82.9074 95.5577 83.2597 96.2633 83.6015L99.1852 81.786L99.163 81.7741L99.2101 81.7439L98.4875 81.3666C97.8434 81.0301 97.1757 80.683 96.4976 80.3267L94.3402 81.598L94.2368 81.6585L93.3701 82.1606Z" fill="white"/>
<path d="M94.1337 74.5508L93.2959 75.0136L96.4352 76.7266L99.3689 74.9991L96.4744 73.3151C95.6837 73.7239 94.9048 74.1367 94.1337 74.5508Z" fill="white"/>
<path d="M112.989 73.1106L113.032 73.1369C113.378 72.9332 113.723 72.7255 114.063 72.5204C114.249 72.4073 114.435 72.2956 114.617 72.1865C114.494 72.101 114.371 72.0156 114.247 71.9301L112.897 70.977C112.305 71.2951 111.704 71.6198 111.096 71.9498L112.985 73.1133L112.989 73.1106Z" fill="white"/>
<path d="M117.483 74.1411L116.919 74.4684C116.623 74.6432 116.328 74.8207 116.031 75.0008C116.525 75.3058 117.014 75.6042 117.504 75.8974C117.96 75.5819 118.372 75.3019 118.771 75.0337C118.712 74.9929 118.652 74.9509 118.592 74.9101L117.483 74.1411Z" fill="white"/>
<path d="M102.528 73.0704L102.577 73.1111L103.058 72.8298C104.018 72.2684 104.58 71.9463 104.853 71.7938L102.331 70.1834L99.7275 71.5638L102.445 73.1295L102.528 73.0704Z" fill="white"/>
<path d="M106.453 74.4805C106.268 74.5844 105.964 74.7579 105.561 74.9893C106.002 75.2548 106.294 75.4297 106.48 75.5362C106.788 75.6992 107.136 75.8859 107.488 76.0804L107.897 76.3013L109.381 75.385C109.6 75.2509 109.814 75.1181 110.028 74.988L109.106 74.4174C108.733 74.19 108.325 73.9428 107.908 73.6904C107.387 73.977 106.917 74.2321 106.453 74.4805Z" fill="white"/>
<path d="M106.538 69.177C106.995 69.4505 107.487 69.7502 107.976 70.0539L109.973 68.9693L107.805 67.489L107.788 67.4982L107.753 67.4745L107.467 67.6073C107.057 67.8058 106.737 67.9649 106.432 68.1279C106.129 68.2738 105.841 68.4132 105.561 68.5499L106.538 69.177Z" fill="white"/>
<path d="M102.962 77.0647C102.818 76.9779 102.674 76.8912 102.524 76.8018L99.7275 78.449L102.359 79.8241C102.655 79.6414 102.953 79.4547 103.249 79.2654C103.802 78.9104 104.355 78.5594 104.909 78.2281C104.655 78.0835 104.292 77.8666 103.808 77.5735L102.962 77.0647Z" fill="white"/>
<path d="M108.151 80.0045L108.037 79.9427L107.787 80.1005C107.402 80.3424 107.011 80.5896 106.618 80.8538C106.272 81.0602 105.949 81.2613 105.636 81.4572C105.902 81.586 106.162 81.7123 106.422 81.8358C106.936 82.1093 107.398 82.338 107.842 82.5563C108.326 82.221 108.8 81.8963 109.264 81.5795L109.904 81.1378L109.827 81.1036L109.983 81.005C109.383 80.6803 108.774 80.3463 108.151 80.0045Z" fill="white"/>
<path d="M103.384 83.8517L102.513 83.4258L99.6528 85.2229L100.271 85.52C100.954 85.8487 101.631 86.1668 102.3 86.4771L102.89 86.0629C103.532 85.612 104.18 85.1545 104.832 84.6799C104.833 84.6786 104.834 84.676 104.836 84.676L104.802 84.6615L104.904 84.5919C104.442 84.3684 103.917 84.1133 103.384 83.8517Z" fill="white"/>
<path d="M112.86 76.9419C112.673 77.0615 112.495 77.1772 112.311 77.2876L111.096 78.037L112.932 79.0308L114.67 77.8358C114.129 77.5059 113.588 77.1693 113.042 76.8301C112.983 76.8683 112.922 76.9038 112.86 76.9419Z" fill="white"/>
<path d="M96.4416 87.1853L93.2212 89.2322C93.5066 89.3637 93.792 89.4964 94.0774 89.624L94.5395 89.833C95.1076 90.0854 95.6706 90.3326 96.2269 90.5718C96.8252 90.1709 97.4235 89.7646 98.0244 89.3545L98.3268 89.1494C98.6305 88.943 98.9342 88.7366 99.2392 88.5302L98.565 88.2068C97.8634 87.8715 97.1538 87.5311 96.4416 87.1853Z" fill="white"/>
<path d="M103.447 56.8211L102.924 56.992C102.315 57.1971 101.697 57.41 101.074 57.6309C101.392 57.878 101.711 58.1291 102.025 58.3842C102.274 58.5406 102.672 58.8574 103.175 59.2597C103.298 59.3583 103.428 59.4622 103.564 59.5713C103.926 59.4333 104.284 59.3005 104.642 59.1651L105.491 58.8469C105.759 58.7431 106.025 58.6405 106.289 58.5446C106.767 58.371 107.234 58.2106 107.701 58.0489L108.813 57.6638C109.078 57.5704 109.34 57.4784 109.599 57.3943C110.081 57.2352 110.549 57.0919 111.017 56.9473L111.907 56.6699C112.203 56.5765 112.501 56.4806 112.79 56.3951C113.183 56.2794 113.564 56.1769 113.944 56.0744L114.851 55.8246C115.194 55.7286 115.534 55.634 115.868 55.5498C116.201 55.4631 116.528 55.3894 116.855 55.3145L117.79 55.0936C118.136 55.0108 118.481 54.928 118.818 54.8544C119.111 54.7926 119.396 54.74 119.68 54.6887L120.631 54.5073C120.975 54.4389 121.318 54.3719 121.653 54.3167C121.982 54.2602 122.306 54.2168 122.631 54.1734L123.452 54.0551C123.757 54.0091 124.062 53.9617 124.357 53.9276C125.239 53.8237 126.1 53.7474 126.939 53.6949C127.748 53.6528 128.535 53.6239 129.293 53.6489L130 53.6646C130.398 53.6751 130.793 53.6922 131.184 53.7146C131.295 53.7212 131.41 53.729 131.524 53.7382C131.479 53.7277 131.434 53.7172 131.388 53.708C130.886 53.6015 130.375 53.5095 129.859 53.424L129.177 53.3149C128.351 53.1992 127.612 53.1204 126.928 53.0717C126.054 53.006 125.126 52.9718 124.167 52.9692L124.04 52.9666C123.253 52.9666 122.525 52.9942 121.791 53.0336C121.562 53.0441 121.339 53.0533 121.116 53.0704C120.398 53.1177 119.674 53.1808 118.937 53.2637L118.223 53.3491C117.519 53.4359 116.808 53.5332 116.08 53.6528C115.901 53.6778 115.733 53.7054 115.564 53.7343C114.788 53.8671 113.996 54.0169 113.195 54.1839L112.547 54.3167C111.689 54.5007 110.821 54.7058 109.94 54.9267L109.332 55.0831C108.4 55.325 107.457 55.5814 106.495 55.8653L106.38 55.9008C105.417 56.1848 104.438 56.4977 103.447 56.8211Z" fill="white"/>
<path d="M113.227 61.6055L114.859 60.9889C115.15 60.8785 115.439 60.7694 115.723 60.6668L117.039 60.2054C117.404 60.0779 117.768 59.9503 118.124 59.832L119.5 59.3916C119.813 59.2904 120.127 59.1892 120.433 59.0985C120.635 59.038 120.835 58.9801 121.036 58.9236L121.572 58.7711C121.93 58.6672 122.287 58.5621 122.634 58.4701C122.861 58.4096 123.078 58.357 123.295 58.3044L123.967 58.1374C124.23 58.0704 124.49 58.0034 124.744 57.9468C125.432 57.7891 126.099 57.6484 126.751 57.5288C127.431 57.4052 128.096 57.3013 128.754 57.2159C128.875 57.1975 129.006 57.1817 129.136 57.1672L129.803 57.0923C130.125 57.0568 130.421 57.0266 130.717 57.0003C130.916 56.9819 131.12 56.9687 131.324 56.9543L131.469 56.9464C131.605 56.9359 131.742 56.928 131.876 56.9214C131.812 56.9148 131.749 56.9109 131.687 56.9056C131.181 56.8636 130.672 56.8373 130.155 56.8215L129.871 56.8097C129.724 56.8031 129.578 56.7952 129.428 56.7939L128.865 56.7913C128.289 56.7913 127.707 56.8005 127.114 56.8307C126.341 56.878 125.54 56.953 124.721 57.0476C124.572 57.066 124.414 57.0897 124.259 57.1133L123.714 57.1896C123.211 57.258 122.707 57.325 122.189 57.4118C121.977 57.4459 121.765 57.488 121.55 57.5288L120.886 57.6537C120.439 57.7365 119.991 57.8193 119.531 57.9166C119.301 57.9652 119.067 58.0204 118.832 58.0757L117.972 58.2768C117.568 58.3688 117.162 58.4622 116.748 58.5673C116.497 58.6318 116.239 58.7027 115.98 58.7737L115.125 59.0051C114.701 59.1195 114.275 59.2365 113.842 59.3627L112.538 59.761C111.956 59.9411 111.393 60.1147 110.82 60.3027C110.43 60.4289 110.036 60.5643 109.642 60.6997L109.472 60.7588C108.878 60.9613 108.283 61.1677 107.677 61.3859C107.311 61.5187 106.938 61.6567 106.563 61.7987L106.458 61.8382C107.097 62.3443 107.807 62.9056 108.59 63.5156L112.16 62.0327C112.518 61.8868 112.876 61.7409 113.227 61.6055Z" fill="white"/>
<path d="M129.687 60.27C128.915 60.3647 128.124 60.4791 127.313 60.6224C126.713 60.7367 126.087 60.8669 125.445 61.0154L124.837 61.164C124.364 61.2797 123.916 61.3875 123.455 61.5084L122.717 61.7174C122.272 61.841 121.827 61.962 121.37 62.1026L120.325 62.43C119.947 62.5496 119.565 62.6692 119.176 62.7994L118.315 63.0926C117.842 63.2543 117.368 63.4199 116.882 63.5934L115.978 63.9287C115.493 64.1101 115 64.2928 114.498 64.4887L113.553 64.8621C113.048 65.0619 112.539 65.2657 112.023 65.4786L111.395 65.7416L111.714 65.9966C112.159 66.3489 112.607 66.6947 113.057 67.0444L114.489 66.3516C114.814 66.1977 115.128 66.0505 115.442 65.9046L118.423 64.5413C118.689 64.4217 118.953 64.3073 119.215 64.1955L120.238 63.7565C120.56 63.6197 120.871 63.4922 121.184 63.3647L121.947 63.0531C122.331 62.8993 122.695 62.7613 123.058 62.6232L123.579 62.4195C123.997 62.263 124.399 62.121 124.8 61.9804L125.127 61.8634C125.617 61.6938 126.104 61.5321 126.575 61.3862C127.459 61.1075 128.366 60.8498 129.265 60.6224C129.322 60.6053 129.411 60.5803 129.497 60.5606C130.166 60.3923 130.849 60.2398 131.568 60.0965C131.165 60.1254 130.755 60.1622 130.344 60.2056L129.687 60.27Z" fill="white"/>
<path d="M117.009 70.1086L118.332 69.3764C118.713 69.1647 119.099 68.9544 119.469 68.7532L122.602 67.1047C122.832 66.9863 123.071 66.8641 123.296 66.7537L125.469 65.7059C125.819 65.5455 126.152 65.3956 126.472 65.2576C127.074 64.9855 127.676 64.7278 128.271 64.4833L128.81 64.2611C129.273 64.077 129.725 63.9009 130.17 63.7352L130.619 63.567C130.702 63.5367 130.787 63.5065 130.872 63.4763C130.664 63.5262 130.453 63.5762 130.243 63.6301L130.054 63.68C129.231 63.8904 128.408 64.1217 127.561 64.3873C127.124 64.5267 126.671 64.6752 126.203 64.8356L125.788 64.9855C125.431 65.1117 125.102 65.2274 124.761 65.3562L124.227 65.5613C123.892 65.6888 123.56 65.815 123.219 65.9504L120.792 66.9614C120.487 67.0928 120.179 67.2256 119.863 67.365L115.882 69.1976C115.983 69.2778 116.085 69.3606 116.189 69.4447C116.462 69.6695 116.737 69.8917 117.009 70.1086Z" fill="white"/>
<path d="M125.682 69.4405C125.877 69.3222 126.07 69.2091 126.256 69.1013C127.056 68.6425 127.827 68.2179 128.588 67.813L128.751 67.7262C128.945 67.6237 129.135 67.5237 129.326 67.4238C128.789 67.6473 128.241 67.8813 127.681 68.1324C127.365 68.2705 127.048 68.4138 126.718 68.5636C126.691 68.5781 126.636 68.6057 126.582 68.6267L126.424 68.703C126.187 68.8134 125.946 68.9251 125.697 69.0461L125.552 69.1158C125.255 69.2604 124.924 69.4221 124.579 69.5956C124.128 69.8217 123.757 70.011 123.372 70.2109C122.91 70.4488 122.502 70.6618 122.077 70.8866C121.6 71.1429 121.158 71.3822 120.699 71.6307L120.491 71.7437C120.208 71.8989 119.917 72.0566 119.622 72.2196L120.381 72.8033C121.99 71.7503 123.298 70.9116 124.371 70.2424L124.526 70.1451L125.682 69.4405Z" fill="white"/>
<path d="M129.085 89.385L128.594 89.2496C127.951 89.0735 127.287 88.8802 126.609 88.662C126.121 88.5108 125.613 88.3412 125.091 88.1611L120.752 86.5073C120.526 86.4152 120.298 86.3206 120.065 86.222L113.112 83.0169L111.469 84.321L113.479 85.1427C113.866 85.2965 114.256 85.4516 114.637 85.5975C115.046 85.7553 115.442 85.9052 115.842 86.0524L116.024 86.1208C116.361 86.247 116.695 86.3732 117.026 86.4915L118.333 86.949C118.659 87.0607 118.985 87.1738 119.304 87.2803L121.475 87.9678C121.783 88.0585 122.084 88.1427 122.385 88.2268L122.852 88.3596C123.082 88.428 123.314 88.4924 123.539 88.5529C123.839 88.6317 124.131 88.704 124.42 88.775L124.999 88.9183C125.169 88.9604 125.339 89.0038 125.506 89.0406C126.146 89.1891 126.769 89.3193 127.374 89.4323C128.127 89.5743 128.89 89.6913 129.708 89.7912C129.869 89.8123 130.014 89.8267 130.161 89.8399L130.44 89.8701C130.818 89.9082 131.198 89.9451 131.575 89.9727C131.39 89.9359 131.206 89.8977 131.02 89.857C130.325 89.7032 129.709 89.5507 129.085 89.385Z" fill="white"/>
<path d="M122.378 83.7993L122.967 84.0373C123.31 84.174 123.636 84.2975 123.96 84.4224L124.561 84.6525C124.907 84.78 125.239 84.8997 125.573 85.0153L126.075 85.1954C126.556 85.3611 127.033 85.5188 127.495 85.6635C128.27 85.9119 129.063 86.1433 129.93 86.3681C130.101 86.4154 130.264 86.4522 130.425 86.4891L130.68 86.5482C130.763 86.5692 130.844 86.589 130.925 86.6074C129.456 86.096 127.94 85.486 126.387 84.7853C125.758 84.5118 125.065 84.1911 124.323 83.8335L117.944 80.5009L116.959 79.9514L116.94 79.9658C116.663 80.1788 116.396 80.3839 116.129 80.6047C116.021 80.6928 115.913 80.7796 115.807 80.8637L117.776 81.7945C118.167 81.9759 118.555 82.1521 118.939 82.3256L119.571 82.6082C119.949 82.7752 120.325 82.9382 120.698 83.0973L121.305 83.3576C121.669 83.5114 122.023 83.6547 122.378 83.7993Z" fill="white"/>
<path d="M121.847 79.0114L126.805 81.504C127.154 81.6617 127.437 81.7906 127.712 81.9089C128.219 82.1376 128.715 82.3519 129.203 82.5557C129.041 82.4702 128.878 82.3835 128.714 82.2954C127.931 81.88 127.128 81.4304 126.307 80.9545C126.131 80.8572 125.926 80.7402 125.713 80.6166C124.348 79.8199 122.62 78.6867 120.446 77.2577L119.696 77.844L120.895 78.5C121.225 78.6801 121.54 78.8484 121.847 79.0114Z" fill="white"/>
<path d="M106.491 94.1885C107.45 94.4711 108.389 94.7262 109.319 94.9681L109.951 95.1298C110.824 95.3506 111.682 95.5491 112.526 95.7358L113.221 95.8765C113.996 96.0382 114.761 96.1841 115.512 96.3116C115.711 96.3458 115.907 96.3774 116.102 96.4063C116.465 96.4654 116.804 96.5062 117.154 96.5561C117.503 96.6048 117.863 96.6626 118.205 96.706L118.949 96.7954C119.675 96.8756 120.395 96.9374 121.101 96.986L121.796 97.0242C122.161 97.0426 122.515 97.0452 122.875 97.057C123.236 97.0675 123.601 97.0886 123.955 97.0886H124.101C124.523 97.0886 124.94 97.082 125.353 97.0675L125.494 97.0662C125.958 97.0465 126.442 97.0215 126.918 96.986C127.381 96.9519 127.856 96.9019 128.343 96.8454C128.619 96.8112 128.897 96.7796 129.187 96.7389C129.332 96.7205 129.476 96.6955 129.619 96.6718L129.899 96.6258C130.405 96.5456 130.907 96.4549 131.402 96.3471C131.438 96.3405 131.472 96.3313 131.506 96.3261C131.434 96.3313 131.362 96.3366 131.288 96.3405C130.502 96.3892 129.694 96.4115 128.889 96.4102C128.218 96.4102 127.59 96.3931 126.959 96.3629C126.07 96.3064 125.198 96.2262 124.354 96.1236C124.139 96.1 123.907 96.0658 123.676 96.0303L122.996 95.9343C122.551 95.8752 122.105 95.8134 121.645 95.7371C121.381 95.6937 121.107 95.6412 120.834 95.5859L119.869 95.4032C119.521 95.3375 119.171 95.2731 118.812 95.1981C118.511 95.1337 118.202 95.0588 117.893 94.9838L117.105 94.7985C116.694 94.7051 116.284 94.6105 115.866 94.5053C115.541 94.4212 115.211 94.3291 114.881 94.2358L114.389 94.1017L113.897 93.9663C113.534 93.8677 113.17 93.7691 112.797 93.6587C112.447 93.5575 112.085 93.4405 111.721 93.3274L110.798 93.0382C110.41 92.9185 110.023 92.7989 109.628 92.6688C109.213 92.532 108.786 92.3835 108.359 92.2336L107.496 91.9339C107.118 91.8024 106.741 91.6736 106.355 91.5342C105.859 91.3554 105.357 91.1596 104.853 90.9663L104.411 90.798L103.968 90.6311C103.833 90.5798 103.701 90.5312 103.568 90.4812C103.527 90.5128 103.506 90.5259 103.477 90.5482C103.45 90.5706 103.412 90.6008 103.388 90.6153C103.293 90.6915 103.193 90.7638 103.094 90.8401C102.993 90.9177 102.891 90.9979 102.799 91.0662L102.69 91.1477C102.439 91.3344 102.239 91.4843 102.104 91.6026C101.749 91.8944 101.409 92.1613 101.074 92.4216C101.719 92.6504 102.34 92.8646 102.954 93.0724L103.421 93.2249C103.918 93.3866 104.408 93.5338 104.903 93.6902C105.396 93.8467 105.897 94.0097 106.384 94.1569L106.491 94.1885Z" fill="white"/>
<path d="M131.384 93.1201L130.792 93.078C130.313 93.0333 129.839 92.9807 129.364 92.9215L128.801 92.8545C128.122 92.7572 127.452 92.6507 126.768 92.5219C126.118 92.3996 125.449 92.2629 124.761 92.1052C124.498 92.046 124.226 91.9763 123.955 91.9066L123.34 91.7528C123.113 91.6989 122.887 91.6424 122.652 91.5793C122.338 91.4965 122.01 91.4018 121.681 91.3072L120.45 90.9535C120.114 90.8523 119.764 90.7406 119.412 90.6275L118.896 90.4632C118.773 90.425 118.646 90.383 118.522 90.3422C118.398 90.3028 118.276 90.2647 118.149 90.2226C117.792 90.1043 117.418 89.9728 117.047 89.8427L116.407 89.6192C116.191 89.5442 115.976 89.4693 115.755 89.3891C115.389 89.2563 115.012 89.1144 114.631 88.9724L113.274 88.4597C112.892 88.3111 112.508 88.1547 112.123 87.9995L108.607 86.5377C108.022 86.9846 107.45 87.429 106.892 87.8668L106.458 88.2073C106.864 88.3611 107.264 88.5109 107.659 88.6516C108.266 88.8738 108.857 89.0762 109.445 89.2774L109.708 89.3668C110.078 89.4943 110.45 89.6231 110.817 89.7414C111.41 89.9373 111.987 90.1174 112.566 90.291L112.703 90.3343C113.092 90.4553 113.481 90.5762 113.862 90.6893C114.29 90.8129 114.715 90.9299 115.138 91.0442L115.943 91.2638C116.222 91.34 116.501 91.4176 116.774 91.486C117.158 91.5819 117.532 91.6687 117.908 91.7555L118.62 91.9211C118.936 91.9974 119.253 92.071 119.562 92.1367C119.77 92.1801 119.97 92.2156 120.174 92.255C120.376 92.2931 120.583 92.3365 120.786 92.3733L121.482 92.5061C121.732 92.5548 121.981 92.6021 122.223 92.6428C122.664 92.7178 123.088 92.773 123.512 92.8308L123.829 92.8755L124.147 92.9215C124.249 92.936 124.348 92.9492 124.448 92.961C124.551 92.9754 124.651 92.9939 124.751 93.0031C125.572 93.099 126.373 93.174 127.151 93.2226C127.713 93.2489 128.278 93.2581 128.834 93.2581H129.113L129.393 93.2568C129.659 93.2542 129.915 93.2436 130.173 93.2331L130.312 93.2265C130.803 93.2095 131.286 93.1884 131.761 93.1477C131.766 93.1477 131.773 93.1477 131.78 93.145C131.714 93.1398 131.649 93.1371 131.583 93.1319C131.518 93.1279 131.451 93.1227 131.384 93.1201Z" fill="white"/>
<path d="M20.1908 86.7296C20.7577 87.0097 21.3992 87.291 22.2082 87.6118L22.7449 87.8168C24.1758 88.3466 25.6748 88.7647 27.192 89.0605L27.5102 89.1197C28.2891 89.263 29.0955 89.3681 29.9137 89.4523C31.0592 89.5679 32.2348 89.635 33.4339 89.635H33.4352C36.3926 89.635 39.5528 89.263 42.8727 88.5478C45.4543 87.9917 48.1315 87.2358 50.9029 86.2537L51.3794 86.0828C52.3691 85.7239 53.3745 85.3388 54.3917 84.926L54.9271 84.7051C55.8527 84.3186 56.7887 83.915 57.7313 83.4891L58.5233 83.1262C59.4842 82.6819 60.4582 82.2165 61.44 81.7248L62.2595 81.3146C63.1877 80.8401 64.1316 80.3471 65.0859 79.8291L65.95 79.3571C66.3008 79.1639 66.6517 78.968 67.0038 78.7669C66.869 78.6893 66.7354 78.6117 66.6006 78.5355L65.8937 78.1319C65.0624 77.6652 64.2128 77.2025 63.3553 76.7463L62.6575 77.1052C62.2255 77.3273 61.7935 77.5482 61.3654 77.7638C61.101 77.8979 60.8365 78.0254 60.5721 78.1529L59.9843 78.4408C59.6282 78.617 59.2721 78.7919 58.9213 78.9601L56.5269 80.0684C55.9024 80.3484 55.2858 80.6153 54.6705 80.8808L54.1822 81.0951C44.6479 85.1402 36.0849 87.1924 28.7289 87.1924C25.2977 87.1924 22.0433 86.7507 19.0545 85.883C18.7691 85.7989 18.4864 85.7082 18.2075 85.6135L18.3843 85.7226C19.0676 86.1341 19.6436 86.4536 20.1908 86.7296Z" fill="white"/>
<path d="M20.401 90.6555C21.0124 91.0828 21.6552 91.493 22.315 91.8768C22.4367 91.9478 22.5598 92.0096 22.6815 92.0753L22.8294 92.1529L22.9787 92.2305C23.4172 92.4697 23.861 92.709 24.3179 92.9259C24.5182 93.0206 24.7224 93.1087 24.9267 93.1915L25.123 93.2743C25.5563 93.4662 25.9779 93.6477 26.4099 93.812C26.639 93.8961 26.8799 93.9763 27.1194 94.0552L27.4755 94.1748C27.8421 94.2945 28.2126 94.418 28.587 94.5232C28.8527 94.5995 29.1237 94.6665 29.3947 94.7335L29.4706 94.752L29.5439 94.769C29.9759 94.8768 30.4119 94.9794 30.8557 95.0662C31.0219 95.1003 31.1882 95.1253 31.3558 95.1569C31.522 95.1845 31.6883 95.2173 31.8545 95.2449C32.3036 95.3186 32.75 95.3856 33.2029 95.4395C33.559 95.4829 33.9125 95.5184 34.2699 95.5513C34.7163 95.5894 35.1679 95.617 35.6248 95.6393C36.0032 95.6564 36.3828 95.6722 36.769 95.6788C37.4615 95.688 38.1632 95.6946 38.878 95.663C43.8959 95.4435 49.3719 94.1998 55.2525 91.9544C59.8253 90.2072 64.6442 87.854 69.6843 84.8987L72.4819 83.237C72.8471 83.0214 73.2137 82.8071 73.5789 82.5942C73.4323 82.5087 73.2831 82.422 73.1338 82.3339L71.6873 81.4859C71.5995 81.4333 71.5223 81.3886 71.4451 81.3453L70.1831 80.5946C69.9789 80.7129 69.7746 80.8273 69.5717 80.9417L68.171 81.7397C67.6931 82.0052 67.2245 82.2576 66.7558 82.51L65.5566 83.1582C65.1731 83.3645 64.7895 83.5591 64.4085 83.755L62.9855 84.4846C62.5378 84.7094 62.0796 84.9277 61.6227 85.1472L61.264 85.3207C61.0009 85.4496 60.7351 85.581 60.4733 85.702C60.0976 85.8795 59.7219 86.049 59.3475 86.2173L57.9951 86.8286C57.6456 86.9824 57.3013 87.1284 56.9583 87.273L55.5562 87.8619C55.1661 88.0197 54.7878 88.1643 54.4094 88.3089L53.8269 88.5337C53.7143 88.5797 53.6017 88.6218 53.4891 88.6665C53.3752 88.7112 53.2626 88.7559 53.1514 88.798C52.7298 88.9544 52.3175 89.0977 51.9012 89.241L51.5726 89.3593C51.3107 89.454 51.0476 89.5486 50.7897 89.6354C50.4847 89.7379 50.1836 89.8339 49.8825 89.9272L49.059 90.1928C48.864 90.2546 48.6689 90.3177 48.4765 90.3755C48.0864 90.4925 47.7054 90.5977 47.3231 90.7042L46.9095 90.8212C46.6712 90.8895 46.4329 90.9566 46.1973 91.0184C45.8609 91.1091 45.5218 91.1893 45.1801 91.2721L44.6355 91.4036C44.5255 91.4325 44.4156 91.4575 44.3043 91.4838C44.1943 91.5114 44.0831 91.539 43.9731 91.564C43.6641 91.6336 43.3578 91.6941 43.0502 91.7559L42.482 91.8716C42.2503 91.9202 42.016 91.9689 41.7869 92.0109C41.5106 92.0622 41.2331 92.1069 40.9582 92.1503L40.2146 92.2686C40.0248 92.3015 39.835 92.333 39.6451 92.358C39.3807 92.3987 39.1189 92.4264 38.857 92.4553L38.1095 92.5447C37.9249 92.5657 37.7377 92.5907 37.5532 92.6078C37.1238 92.6485 36.7075 92.6735 36.2899 92.6985L36.045 92.7195C35.8618 92.734 35.6798 92.7471 35.5004 92.7576C34.8825 92.7892 34.2699 92.8023 33.6664 92.8037L33.4962 92.8089C31.7406 92.8089 30.0283 92.6906 28.3644 92.4553C25.5917 92.0622 22.9564 91.347 20.4887 90.3098C20.2544 90.2112 20.0266 90.1034 19.7962 89.9982C19.5658 89.8957 19.3328 89.7971 19.105 89.688C19.2935 89.8378 19.4689 89.9719 19.643 90.1034C19.9062 90.3019 20.1575 90.4873 20.401 90.6555Z" fill="white"/>
<path d="M20.5465 94.5886C23.1608 96.9247 26.0212 98.7231 29.1029 99.9707C32.1872 101.221 35.4927 101.922 38.9999 102.065C39.4319 102.082 39.8691 102.09 40.3103 102.09L40.6769 102.089C40.8706 102.086 41.067 102.078 41.2647 102.069L41.8551 102.049C42.0279 102.044 42.2007 102.039 42.3748 102.027C48.7398 101.652 55.7829 99.575 63.3535 95.8401C64.4362 95.3063 65.5267 94.7384 66.6303 94.1376C67.637 93.5921 68.6463 93.0254 69.6687 92.4207C71.8432 91.1573 74.07 89.8611 76.2641 88.5793L80.2203 86.2537C79.8158 86.0421 79.4138 85.8291 79.0159 85.6188L78.6323 85.4163C77.9934 85.0719 77.3677 84.7353 76.7498 84.3922C75.9133 84.8668 75.1265 85.319 74.3318 85.7857L73.6786 86.1709C72.8695 86.6494 72.0618 87.1306 71.2632 87.6065C60.806 93.734 51.1734 97.3953 42.6249 98.4891C41.393 98.6455 40.1742 98.7507 39.0025 98.8033C36.6264 98.8993 34.3564 98.7757 32.1741 98.4733C27.8095 97.8673 23.8219 96.4843 20.2271 94.2967C20.2807 94.3453 20.3344 94.394 20.3868 94.4413C20.4404 94.49 20.4928 94.5399 20.5465 94.5886Z" fill="white"/>
<path d="M61.0707 104.439L61.5983 104.205C62.0591 104.001 62.5199 103.789 62.9834 103.571L63.6536 103.25C64.0791 103.042 64.5111 102.831 64.9444 102.609L65.654 102.248C66.1043 102.016 66.5586 101.77 67.0115 101.524L67.6504 101.18C68.3102 100.811 68.9791 100.437 69.6533 100.042C73.1526 97.9955 78.5384 94.6708 85.9938 90.0695L86.7269 89.616C86.7256 89.6147 86.7256 89.6133 86.7256 89.6133L85.8106 89.1519C85.0473 88.7614 84.2763 88.3618 83.4934 87.9503C79.6027 90.2588 75.3088 92.7606 71.2243 95.1361C70.5004 95.5634 69.779 95.9762 69.059 96.3785L68.3992 96.74C67.9044 97.0121 67.4095 97.2843 66.9199 97.5432L65.9197 98.0559C65.7325 98.1519 65.5479 98.2439 65.3607 98.3386C65.1748 98.4346 64.9876 98.5318 64.8017 98.6226L64.2035 98.9105L63.6065 99.1997C63.308 99.3403 63.0082 99.4836 62.7137 99.6217C62.5003 99.7203 62.2895 99.8149 62.0788 99.907L61.7724 100.044C61.3928 100.212 61.0158 100.382 60.6413 100.541C60.3756 100.655 60.1046 100.765 59.8349 100.877L58.9028 101.262L58.7824 101.308L58.6017 101.377C58.2836 101.502 57.9707 101.62 57.6565 101.737L56.566 102.139C56.2584 102.248 55.956 102.351 55.6549 102.451C55.2923 102.576 54.9218 102.699 54.5539 102.816C54.2738 102.906 53.9962 102.99 53.7187 103.075C53.3089 103.198 52.9345 103.308 52.5627 103.413C52.2865 103.491 52.0077 103.568 51.7314 103.639C51.3544 103.738 50.9735 103.836 50.5964 103.926L49.8123 104.11C49.4169 104.198 49.0294 104.282 48.6445 104.356C48.4036 104.407 48.151 104.454 47.9049 104.5C47.5095 104.573 47.1181 104.638 46.7293 104.698C46.4884 104.737 46.2501 104.775 46.0158 104.808C45.627 104.864 45.2356 104.912 44.8481 104.958C44.6242 104.983 44.3912 105.01 44.1608 105.033C43.7733 105.07 43.3963 105.1 43.0192 105.129L42.311 105.175C41.9484 105.193 41.5936 105.204 41.2388 105.212L41.0935 105.215C40.888 105.222 40.6824 105.226 40.4795 105.226L40.2884 105.234C39.7857 105.234 39.3183 105.225 38.8523 105.209C32.4166 104.942 26.5963 102.983 21.4985 99.3745C23.3968 101.324 25.4154 102.969 27.5454 104.308C31.097 106.541 34.9603 107.92 39.101 108.427C39.7045 108.507 40.3093 108.564 40.9181 108.605C41.1838 108.622 41.4548 108.632 41.7232 108.643C42.0557 108.656 42.3791 108.668 42.7037 108.672L43.0611 108.674C46.2789 108.674 49.7049 108.187 53.2435 107.227L53.4294 107.174C55.3106 106.656 57.2494 105.999 59.1934 105.223L59.3021 105.18C59.8873 104.945 60.4777 104.695 61.0707 104.439Z" fill="white"/>
<path d="M21.2606 55.1734L21.5761 55.0064C22.0696 54.7382 22.52 54.4924 22.9834 54.2702C23.2164 54.1598 23.4481 54.0612 23.6825 53.9626L24.0922 53.7878C24.4954 53.6103 24.9 53.4341 25.3123 53.2777C25.5899 53.1738 25.8713 53.0805 26.1528 52.9858L26.374 52.9122C26.8231 52.7597 27.2734 52.6085 27.7355 52.4757C28.0222 52.3942 28.3128 52.3206 28.6048 52.2483L28.8286 52.1905C29.2999 52.0735 29.7712 51.9617 30.249 51.8644C30.6195 51.7908 30.99 51.7264 31.3644 51.6633C31.8553 51.5805 32.3502 51.5082 32.8503 51.4451C33.226 51.3991 33.603 51.3609 33.984 51.3254C34.4958 51.2807 35.009 51.2466 35.5287 51.2216C35.9162 51.2032 36.3011 51.1887 36.6899 51.1821L36.9596 51.1716C37.0814 51.1664 37.2057 51.1611 37.3327 51.1611C37.8865 51.1611 38.4455 51.1716 39.0123 51.194C48.5807 51.6672 59.4307 55.4508 71.2691 62.4368C73.1268 63.5476 74.974 64.6151 76.7583 65.6445L76.7675 65.6484C77.3762 65.3106 77.998 64.9688 78.6264 64.6243L79.0034 64.4219C79.4066 64.201 79.8164 63.9815 80.2288 63.7619C79.1514 63.1322 78.0478 62.4841 76.8984 61.8044L76.3237 61.4666C74.2225 60.2295 72.0088 58.9293 69.6916 57.5805C58.242 50.8219 47.9117 47.5919 39.0162 47.9849C32.0124 48.2229 25.8046 50.722 20.5537 55.414C20.3953 55.5586 20.2356 55.7045 20.0771 55.8544C20.301 55.715 20.5275 55.5796 20.7566 55.4455C20.9242 55.3482 21.0917 55.2615 21.2606 55.1734Z" fill="white"/>
<path d="M21.5806 59.256C23.1503 58.671 24.8115 58.2029 26.5173 57.8651L26.7294 57.8256C28.9117 57.4102 31.1634 57.1999 33.4216 57.1999C34.0828 57.1999 34.7491 57.217 35.4259 57.2498C35.5608 57.2564 35.6995 57.2682 35.8383 57.2788L36.3279 57.3143C36.7075 57.3379 37.0859 57.3629 37.4721 57.3997C37.6475 57.4168 37.8229 57.4391 37.9983 57.4615L38.5848 57.5312C38.9095 57.5667 39.2342 57.6022 39.5641 57.6495C39.7578 57.6745 39.9581 57.71 40.1558 57.7428L40.8601 57.8559C41.1389 57.8993 41.4191 57.944 41.7005 57.9952C41.9192 58.0347 42.1391 58.082 42.359 58.1267L43.1236 58.2831C43.3736 58.3344 43.6263 58.3831 43.8802 58.4396L45.3713 58.8011C45.6161 58.8603 45.8623 58.9194 46.111 58.9852C46.3859 59.0575 46.6634 59.1377 46.9397 59.2179L47.4594 59.3638C47.7657 59.4479 48.0707 59.5334 48.381 59.6241C48.6284 59.7003 48.8759 59.7792 49.122 59.8581L49.7569 60.0618C50.0698 60.1604 50.3827 60.2577 50.6995 60.3642C50.9259 60.4405 51.155 60.5233 51.3828 60.6048L52.3477 60.9466C52.5846 61.0307 52.8216 61.1122 53.0611 61.2016C53.3059 61.2924 53.5507 61.3896 53.7968 61.4869L54.3663 61.7065C54.7303 61.8458 55.0942 61.9852 55.4621 62.1337C55.7278 62.2415 55.9936 62.3546 56.2593 62.4676L56.9466 62.7569C57.2673 62.891 57.5907 63.025 57.9154 63.1683C58.1379 63.2643 58.367 63.3695 58.5974 63.4747L61.5848 64.8629C62.0339 65.0785 62.4842 65.2941 62.9385 65.5202C63.1466 65.6241 63.3613 65.7332 63.5734 65.8436L64.0591 66.0921C64.5421 66.3379 65.0252 66.5851 65.5135 66.8428C65.7635 66.9742 66.0214 67.1149 66.2793 67.2542L68.1291 68.2586C68.3582 68.3861 68.5899 68.5176 68.819 68.6504L69.505 69.0382C69.7093 69.1526 69.9135 69.267 70.1164 69.384C71.2645 68.7266 72.4074 68.0772 73.5502 67.4317L72.2699 66.6916C71.398 66.1841 70.5209 65.6675 69.6399 65.1416C58.2518 58.4146 47.8862 54.7783 38.8362 54.334C38.1306 54.3064 37.4197 54.3103 36.718 54.3221C36.3593 54.3287 36.0059 54.3432 35.6498 54.3563C35.1811 54.38 34.7098 54.4102 34.2438 54.4536C33.8982 54.4852 33.5565 54.5193 33.2187 54.5601C32.7645 54.6166 32.3089 54.6837 31.8559 54.7612C31.5247 54.8151 31.1935 54.8703 30.8662 54.9361C30.4238 55.0268 29.9904 55.1293 29.5558 55.2398C29.2285 55.3186 28.9065 55.3988 28.5923 55.4895C28.193 55.6013 27.8016 55.7327 27.4128 55.8655L27.1221 55.9615C26.8826 56.0404 26.643 56.1192 26.4087 56.2086C26.0107 56.3585 25.6271 56.5268 25.2422 56.6937L24.8574 56.8594C24.6754 56.937 24.4908 57.0132 24.3101 57.1C23.8611 57.3129 23.4278 57.5522 22.9919 57.7915L22.6855 57.9519C22.5546 58.0189 22.4237 58.0873 22.2967 58.1609C21.6186 58.5566 20.9706 58.972 20.3736 59.3888C20.0031 59.6425 19.6156 59.9238 19.1797 60.2604C19.7282 60.0014 20.3252 59.7463 21.0242 59.4703C21.2075 59.3966 21.3934 59.3257 21.5806 59.256Z" fill="white"/>
<path d="M22.6936 62.1981L22.2145 62.3835C21.4421 62.6859 20.7758 62.9751 20.1775 63.2722C19.6342 63.5391 19.0647 63.8493 18.3879 64.2542L17.9834 64.504C18.329 64.3844 18.6825 64.2713 19.0425 64.1648C22.094 63.263 25.4048 62.8055 28.8819 62.8055C36.7981 62.8055 45.712 65.068 56.1378 69.7231L56.4664 69.8677C57.0581 70.1346 57.6394 70.4041 58.2259 70.6776C58.7626 70.9273 59.3072 71.189 59.8531 71.4506L60.9488 71.9817C61.7487 72.3774 62.5525 72.7836 63.3642 73.2017C64.0253 72.8599 64.6969 72.4983 65.3698 72.1276L65.7677 71.9094C66.1199 71.7122 66.4733 71.5124 66.8242 71.3125L66.815 71.1298C66.5192 70.9615 66.2246 70.7972 65.9327 70.6381L65.0844 70.1754C64.0894 69.6403 63.1024 69.1237 62.1244 68.628L61.5013 68.3152C60.4684 67.8011 59.4473 67.3121 58.4379 66.8506L57.7703 66.5443C56.7479 66.0842 55.732 65.6451 54.7318 65.2323L54.453 65.1166C53.3638 64.6749 52.2864 64.2634 51.2247 63.8809L50.9772 63.7941C42.1014 60.6377 34.1419 59.6583 27.3999 60.8993L27.2428 60.9308C25.7112 61.2214 24.1795 61.6486 22.6936 62.1981Z" fill="white"/>
<path d="M55.452 43.3902H55.3878L55.2661 43.3311C54.6508 43.1378 54.0447 42.9603 53.4399 42.7947L53.3299 42.7618C49.8083 41.8048 46.368 41.3157 43.1305 41.3157L42.7495 41.3184C42.4445 41.3223 42.1395 41.3341 41.8345 41.3473L41.6302 41.3539C41.4051 41.3631 41.1773 41.3723 40.9521 41.3894C40.3408 41.4327 39.7359 41.488 39.1442 41.5681C32.4467 42.3911 26.519 45.4398 21.4985 50.6392C26.6224 47.0055 32.4533 45.0585 38.8837 44.839C39.4047 44.8166 39.9493 44.8035 40.4913 44.8035L40.7859 44.8114C41.4012 44.8179 41.9523 44.8363 42.5061 44.8626C43.1842 44.9021 43.7811 44.9468 44.3833 45.0072C45.0458 45.0756 45.6597 45.1519 46.2789 45.2412L46.3863 45.2597C46.9531 45.3398 47.5724 45.445 48.1942 45.5607C48.8946 45.6948 49.5099 45.8223 50.1252 45.9643L50.2561 45.9945C50.8714 46.1378 51.4722 46.2864 52.0797 46.452L52.2852 46.5059C52.8691 46.6663 53.4569 46.8398 54.0486 47.0213L54.2973 47.0962C54.8891 47.2829 55.4638 47.4709 56.0411 47.6707L56.3684 47.7838C56.9313 47.9823 57.4903 48.1874 58.0532 48.403L58.4473 48.5515C58.9892 48.7632 59.5338 48.9853 60.081 49.2128L60.5353 49.4008C61.072 49.6295 61.6036 49.8635 62.1377 50.1067L62.6509 50.3342C63.1706 50.5734 63.6929 50.8258 64.2166 51.0782L64.7808 51.3517C65.2992 51.6067 65.8229 51.8736 66.3491 52.147L66.9238 52.4428C67.4645 52.7268 68.0117 53.0265 68.5602 53.3289L69.0826 53.6155C69.8052 54.0191 70.5305 54.4332 71.2583 54.8631C73.7863 56.3329 76.195 57.7513 78.4729 59.0923L79.1026 59.4617C80.6382 60.3635 82.1057 61.2273 83.5131 62.0489C83.8272 61.8859 84.1362 61.7255 84.4399 61.5704L84.741 61.4179C85.1612 61.2023 85.5815 60.9893 85.9952 60.7829L86.3813 60.591C86.5005 60.5318 86.6222 60.4713 86.7414 60.4122C83.7238 58.5375 81.0506 56.8811 78.706 55.4363L76.775 54.2518C73.8007 52.4284 71.4442 51.0007 69.6704 49.949C69.0027 49.5546 68.339 49.176 67.6792 48.8092L67.0508 48.4661C66.5442 48.1926 66.1161 47.9612 65.6933 47.7391L64.9942 47.3815C64.5648 47.1646 64.1341 46.9463 63.7034 46.7386L63.041 46.4218C62.5762 46.2009 62.1154 45.9906 61.6585 45.7829L61.1323 45.5489C60.5471 45.2938 59.9632 45.048 59.3807 44.814L59.2615 44.7627C57.9786 44.2526 56.697 43.7912 55.452 43.3902Z" fill="white"/>
<path d="M54.0325 39.6952L54.2682 39.7596C54.8547 39.9213 55.466 40.1001 56.0813 40.2907L56.2437 40.3407C57.6143 40.7758 58.9902 41.2662 60.3438 41.8065L60.5795 41.9025C61.1673 42.1391 61.738 42.3784 62.3141 42.6308L62.9464 42.9134C63.4033 43.1172 63.8588 43.3236 64.317 43.5405C64.5658 43.6575 64.8197 43.7798 65.0724 43.9047C65.5018 44.1111 65.9325 44.3267 66.3658 44.5449L67.1447 44.9446C67.5846 45.1746 68.0297 45.4152 68.4748 45.6558L69.2092 46.0554C69.8965 46.438 70.5864 46.8324 71.2816 47.2412L72.1207 47.7395C75.1958 49.5774 79.7765 52.3828 85.7382 56.0796C87.0552 56.8946 88.4468 57.7597 89.9143 58.6747L90.1172 58.7995C90.925 58.4104 91.7301 58.0331 92.5299 57.6611L93.2539 57.3285L88.0161 53.8315C87.3799 53.4122 86.7606 53.0059 86.1375 52.601L78.3783 47.6317C77.7905 47.2636 77.2145 46.9099 76.6398 46.5563L75.3817 45.778C74.7154 45.3705 74.0608 44.9774 73.4076 44.5844L72.5017 44.0361C71.5499 43.4669 70.6178 42.9174 69.7028 42.3836C69.0521 41.9998 68.4067 41.6343 67.7666 41.2794L67.2076 40.977C66.7324 40.718 66.265 40.4695 65.8003 40.2303L65.2256 39.9384C64.7019 39.6742 64.1822 39.4191 63.6664 39.1759L63.3417 39.0234C62.6845 38.7145 62.0326 38.4253 61.3872 38.1518C60.7078 37.8639 60.0912 37.6194 59.4785 37.3841L59.2154 37.2881C58.6197 37.062 58.0306 36.8516 57.4454 36.6545C52.8465 35.1255 48.5264 34.4104 44.4916 34.509L44.2992 34.5142C43.8122 34.5274 43.354 34.5563 42.8984 34.5892L42.5096 34.6181C42.1051 34.6536 41.6967 34.7062 41.2882 34.7614L40.8601 34.8153C40.3299 34.8915 39.8024 34.9849 39.2813 35.094C33.0617 36.4086 27.4678 39.8635 22.6201 45.3745C27.3879 41.5055 32.8012 39.1799 38.7708 38.4463C39.4345 38.3609 40.1126 38.2991 40.7934 38.2531C40.9465 38.2412 41.1089 38.2346 41.2712 38.2281L41.5226 38.2162C41.9467 38.1965 42.3683 38.1794 42.7937 38.1755L42.9678 38.1715C43.2925 38.1545 43.6224 38.1676 43.9523 38.1781L44.1892 38.1847L44.3699 38.1886C46.8441 38.2701 49.4388 38.6133 52.0833 39.2114L52.1972 39.239C52.8046 39.3758 53.4173 39.5309 54.0325 39.6952Z" fill="white"/>
<path d="M90.1106 91.2409L87.5107 92.8435C84.7353 94.5564 82.2506 96.0893 80.0421 97.446C76.3622 99.7085 73.452 101.478 71.2605 102.76C58.9705 109.963 48.3757 112.826 38.7393 111.546C37.9944 111.456 37.2587 111.339 36.5308 111.198C31.437 110.207 26.7556 107.982 22.5454 104.56C27.4062 110.106 33.0184 113.582 39.2655 114.906C39.7853 115.014 40.3142 115.106 40.8457 115.183L41.2711 115.24C41.6743 115.294 42.0919 115.343 42.5122 115.383L42.8525 115.407C43.3317 115.443 43.8082 115.472 44.2887 115.487L44.4523 115.492C44.6827 115.497 44.9236 115.5 45.1671 115.5C49.0067 115.5 53.1043 114.785 57.3472 113.372C58.0004 113.155 58.6039 112.938 59.2127 112.705L59.4457 112.62C60.0741 112.382 60.7038 112.128 61.3374 111.861L61.4434 111.824C62.0103 111.576 62.6674 111.285 63.3272 110.978L63.6257 110.834C64.1494 110.588 64.6809 110.328 65.2163 110.057L65.7596 109.779C66.2466 109.53 66.7283 109.274 67.214 109.011L67.7298 108.731C68.3713 108.376 69.0219 108.006 69.6765 107.62C70.6125 107.068 71.5643 106.5 72.5343 105.916L72.9663 105.653C73.7793 105.16 74.604 104.657 75.4445 104.14L76.8007 103.299C77.3558 102.954 77.9109 102.61 78.4764 102.252L86.051 97.3921C86.7553 96.9333 87.4583 96.4719 88.1731 95.9999L93.1857 92.6541C92.8755 92.5148 92.5718 92.3768 92.2667 92.2374L90.1106 91.2409Z" fill="white"/>
</svg>
