<svg width="152" height="24" viewBox="0 0 152 24" fill="none" xmlns="http://www.w3.org/2000/svg">
<path d="M21.8062 5.971C21.0607 4.72448 19.4112 4.29994 18.1252 5.03159L1.3699 14.4708C0.0838968 15.1934 -0.35409 16.7922 0.391419 18.0387C0.894638 18.8698 1.78925 19.3395 2.72114 19.3395C3.17776 19.3395 3.6437 19.222 4.07237 18.9872L20.8277 9.54796C22.1137 8.82534 22.5517 7.22655 21.7969 5.98003L21.8062 5.971ZM18.1532 14.4166L9.77552 19.1407C8.48951 19.8634 8.05153 21.4622 8.79704 22.7087C9.30025 23.5397 10.1949 24.0094 11.1268 24.0094C11.5834 24.0094 12.0493 23.892 12.478 23.6571L20.8556 18.933C22.1416 18.2104 22.5796 16.6116 21.8341 15.3651C21.0886 14.1185 19.4392 13.694 18.1532 14.4166ZM2.69318 9.93637C3.1498 9.93637 3.61575 9.81895 4.04441 9.58409L12.4221 4.85997C13.7081 4.13735 14.1461 2.53855 13.4006 1.29204C12.6457 0.0545492 11.0056 -0.36999 9.7196 0.35263L1.34194 5.07675C0.0559403 5.79937 -0.382046 7.39817 0.363463 8.63566C0.866681 9.46667 1.76129 9.93637 2.69318 9.93637ZM99.8237 6.28714C99.1994 5.68195 97.5872 5.20321 96.5435 5.20321C95.4998 5.20321 94.7449 5.37484 93.869 5.70905C92.993 6.04326 92.2475 6.52199 91.6324 7.12719C91.0174 7.73238 90.5328 8.46403 90.188 9.29505C89.8432 10.1261 89.6662 11.0474 89.6662 12.05C89.6662 12.9985 89.8432 13.8837 90.2066 14.7057C90.5608 15.5276 91.0547 16.2503 91.679 16.8735C92.3034 17.4877 92.8905 17.9755 93.7665 18.3278C94.6331 18.6801 95.2761 18.8607 96.618 18.8607C98.4632 18.8607 99.833 17.7226 99.833 17.7226V18.5626H103.915V5.50129H99.833V6.28714H99.8237ZM99.8889 12.0862C99.8889 14.1095 98.5098 15.4463 96.8417 15.4463C95.1736 15.4463 93.7758 14.1095 93.7758 12.0862V12.041C93.7758 9.9996 95.1829 8.68082 96.8417 8.68082C98.5004 8.68082 99.8889 10.0267 99.8889 12.041V12.0862ZM139.121 5.18515C135.105 5.18515 132.104 8.05756 132.104 11.8784V11.9236C132.104 16.0244 135.17 18.8427 139.317 18.8427C141.815 18.8427 143.669 17.8942 144.964 16.3406L142.532 14.254C141.693 15.2747 140.687 15.7986 139.373 15.7986C137.621 15.7986 136.382 14.8953 136 13.1791H145.617C145.645 12.8268 145.673 12.4836 145.673 12.1765C145.673 8.13886 142.961 5.18515 139.131 5.18515H139.121ZM135.944 10.8035C136.195 9.26795 137.313 8.13886 138.935 8.13886C140.556 8.13886 141.61 9.22278 141.842 10.8035H135.944ZM147.862 0.000352812V18.5626H151.991V0.000352812H147.862ZM48.1413 5.20321C47.284 5.20321 46.4546 5.35677 45.6625 5.67292C44.8704 5.98906 44.1901 6.43167 43.6403 7.00976C43.4819 6.80201 43.2862 6.59426 43.0532 6.3865C42.8109 6.16972 42.5313 5.98003 42.2238 5.79937C41.907 5.61872 41.5435 5.48323 41.1149 5.3658C40.6955 5.25741 40.2203 5.20321 39.6798 5.20321C38.7945 5.20321 38.0303 5.3658 37.378 5.70001C36.7257 6.03423 36.1945 6.44973 35.7752 6.95557V5.51033H31.6749V18.5626H35.8031V11.5532C35.8031 10.7222 36.0454 10.0357 36.5393 9.49377C37.0239 8.96084 37.6669 8.68985 38.4497 8.68985C39.1579 8.68985 39.6891 8.90664 40.0432 9.33118C40.3973 9.75572 40.5744 10.3609 40.5744 11.1377V18.5626H44.5628V11.5532C44.5628 10.7222 44.8051 10.0357 45.2804 9.49377C45.7557 8.96084 46.3987 8.68985 47.2001 8.68985C47.9083 8.68985 48.4395 8.90664 48.7936 9.33118C49.1477 9.75572 49.3248 10.3609 49.3248 11.1377V18.5626H53.4624V10.4964C53.4624 8.86147 53.0057 7.57882 52.1018 6.63039C51.1979 5.69098 49.8746 5.21225 48.1506 5.21225L48.1413 5.20321ZM115.153 5.27548C114.193 5.27548 113.411 5.48323 112.814 5.8897C112.208 6.29618 111.743 6.72071 111.398 7.17235V5.50129H107.297V18.5807H111.435V12.1223C111.435 11.0835 111.733 10.2796 112.339 9.71055C112.945 9.14149 113.727 8.86147 114.706 8.86147C115.284 8.86147 115.778 8.9247 116.197 9.06019L116.859 5.52839C116.607 5.43806 116.355 5.3658 116.104 5.32967C115.843 5.29354 115.535 5.27548 115.172 5.27548H115.153ZM122.953 9.62926C123.223 9.32214 123.55 9.06923 123.941 8.87954C124.323 8.68985 124.761 8.59049 125.255 8.59049C125.963 8.59049 126.541 8.71695 126.97 8.96987C127.398 9.22278 127.762 9.51183 128.06 9.84604L130.511 7.28074C129.914 6.64845 129.169 6.13359 128.284 5.75421C127.408 5.37484 126.364 5.18515 125.162 5.18515C124.127 5.18515 123.177 5.3658 122.31 5.71808C121.434 6.07036 120.689 6.55812 120.055 7.17235C119.431 7.79561 118.937 8.51823 118.583 9.34021C118.228 10.1712 118.042 11.0564 118.042 11.9958C118.042 12.9985 118.219 13.9108 118.564 14.7508C118.909 15.5909 119.393 16.3135 120.008 16.9187C120.623 17.5329 121.369 18.0026 122.245 18.3368C123.112 18.671 124.09 18.8427 125.152 18.8427C126.373 18.8427 127.426 18.6349 128.321 18.2104C129.206 17.7949 129.924 17.289 130.473 16.7109L128.106 14.1456C127.827 14.4527 127.445 14.7418 126.979 15.0037C126.504 15.2657 125.926 15.4012 125.236 15.4012C124.742 15.4012 124.314 15.3018 123.922 15.1031C123.54 14.9044 123.205 14.6424 122.935 14.3263C122.664 14.0101 122.459 13.6488 122.319 13.2333C122.18 12.8268 122.105 12.4113 122.105 11.9958C122.105 11.5442 122.17 11.1106 122.319 10.7042C122.459 10.2977 122.664 9.93637 122.935 9.62926H122.953ZM85.3049 7.19042C84.6806 6.57619 84.0935 6.08842 83.2175 5.73615C82.3508 5.38387 81.7078 5.20321 80.3659 5.20321C78.5208 5.20321 77.1509 6.34134 77.1509 6.34134V5.50129H73.0693V24.0004H77.1509C77.1509 24.0004 77.1509 17.7858 77.1509 17.7949C77.7753 18.4001 79.3874 18.8788 80.4312 18.8788C81.4749 18.8788 82.2297 18.7072 83.1057 18.373C83.9816 18.0387 84.7271 17.56 85.3422 16.9548C85.9572 16.3496 86.4418 15.627 86.7866 14.787C87.1314 13.9559 87.3085 13.0346 87.3085 12.032C87.3085 11.0835 87.1314 10.1983 86.768 9.37634C86.4139 8.55436 85.92 7.82271 85.2956 7.20848L85.3049 7.19042ZM83.2175 12.032C83.2175 14.0734 81.8103 15.3921 80.1516 15.3921C78.4928 15.3921 77.1043 14.0463 77.1043 12.032V11.9868C77.1043 9.96347 78.4835 8.62662 80.1516 8.62662C81.8197 8.62662 83.2175 9.96347 83.2175 11.9868V12.032ZM62.8744 14.236L59.2867 5.51033H54.8415L60.5727 18.5626L58.1777 24.0004H62.5762L70.9166 5.51936H66.7138L62.8744 14.245V14.236Z" fill="white"/>
</svg>
