<?xml version="1.0" encoding="UTF-8" standalone="no"?>
<!DOCTYPE svg PUBLIC "-//W3C//DTD SVG 1.1//EN" "http://www.w3.org/Graphics/SVG/1.1/DTD/svg11.dtd">
<svg width="100px" height="100px" viewBox="0 0 100 100" style="enable-background:new 0 0 100 100;" xmlns="http://www.w3.org/2000/svg" xmlns:xlink="http://www.w3.org/1999/xlink">
<circle cx="49.5" cy="49.5" r="47.584"/>
<path d="M49.738,90.607c-22.489,0-40.786-18.295-40.786-40.787c0-22.488,18.297-40.785,40.786-40.785s40.786,18.296,40.786,40.785 
C90.523,72.313,72.229,90.607,49.738,90.607L49.738,90.607z"/>
<path style="fill:#FFFFFF;" d="M49.738,6.318c24.028,0,43.505,19.478,43.505,43.505c0,24.026-19.478,43.505-43.505,43.505
c-24.027,0-43.505-19.479-43.505-43.505C6.233,25.796,25.71,6.318,49.738,6.318 M49.738,11.756
c-20.991,0-38.066,17.077-38.066,38.067c0,20.989,17.076,38.067,38.066,38.067c20.991,0,38.067-17.078,38.067-38.067
C87.805,28.833,70.729,11.756,49.738,11.756L49.738,11.756z"/>
<text x="49" y="60" style="fill:#fff;font-family:Arial,sans-serif;font-size:30px;font-weight:bold;text-anchor:middle;">GPX</text>
</svg>
