<svg version="1.1" id="Layer_1" xmlns="http://www.w3.org/2000/svg" xmlns:xlink="http://www.w3.org/1999/xlink" x="0px" y="0px"
	 width="100%" viewBox="0 0 1280 2591" enable-background="new 0 0 1280 2591" xml:space="preserve">
<path fill="#000000" opacity="1.000000" stroke="none"
	d="
M1281.000000,1400.000000
	C1281.000000,1629.026855 1281.000000,1858.053711 1280.726196,2087.846191
	C1278.178101,2087.060303 1276.064575,2085.166504 1273.604492,2084.010986
	C1251.727051,2073.735107 1229.796997,2063.570801 1207.865234,2053.410889
	C1185.937134,2043.252930 1163.989014,2033.138550 1142.050171,2023.003906
	C1119.670776,2012.665894 1097.286865,2002.337402 1074.914429,1991.984253
	C1057.802612,1984.065308 1040.717896,1976.087891 1023.598938,1968.184570
	C996.536743,1955.690674 969.446472,1943.257812 942.386475,1930.759155
	C924.831299,1922.650635 907.323608,1914.439575 889.768738,1906.330322
	C863.293945,1894.100464 836.786377,1881.941528 810.312195,1869.710205
	C792.758545,1861.600342 775.239502,1853.415771 757.704102,1845.266235
	C729.057678,1831.952881 700.427429,1818.604614 671.754028,1805.349731
	C662.566833,1801.102905 653.264709,1797.104614 644.007446,1792.524414
	C643.998596,1764.094116 643.998108,1736.131958 643.994690,1708.169800
	C643.994446,1706.339233 644.317749,1704.409668 643.833069,1702.713989
	C643.526428,1701.641113 642.010193,1700.244263 641.015686,1700.227539
	C640.039368,1700.211182 638.647400,1701.579590 638.153992,1702.665527
	C637.650269,1703.774170 638.005859,1705.278687 638.005432,1706.609863
	C637.996887,1735.404175 637.991150,1764.198486 637.608398,1792.996826
	C611.945862,1804.651367 586.660400,1816.303345 561.373596,1827.952271
	C543.528748,1836.173096 525.681641,1844.388916 507.836365,1852.608643
	C481.368103,1864.800171 454.891632,1876.973755 428.435760,1889.192017
	C410.887970,1897.296387 393.373138,1905.472168 375.838287,1913.604492
	C347.498352,1926.748535 319.159851,1939.895752 290.810181,1953.018799
	C261.293060,1966.682129 231.752731,1980.295410 202.244354,1993.977661
	C190.403870,1999.467773 178.661499,2005.170166 166.804749,2010.624390
	C139.162064,2023.340454 111.475357,2035.960815 83.810066,2048.627686
	C70.927040,2054.526367 58.016453,2060.366455 45.183590,2066.372314
	C32.335373,2072.385742 19.558968,2078.552734 6.775805,2084.703857
	C4.783138,2085.662598 2.922000,2086.894531 1.000024,2088.000000
	C1.000000,1858.973145 1.000000,1629.946289 1.270586,1400.156982
	C4.183676,1401.298340 6.605681,1403.671509 9.503143,1405.032349
	C35.666328,1417.320312 61.909828,1429.437500 88.135811,1441.591675
	C105.519966,1449.648071 122.910042,1457.691772 140.304520,1465.725952
	C167.430206,1478.254272 194.562332,1490.768677 221.690628,1503.291382
	C238.497986,1511.049927 255.305450,1518.808228 272.109161,1526.574585
	C303.653625,1541.153687 335.194672,1555.740112 366.738770,1570.320068
	C383.541931,1578.086670 400.357727,1585.826294 417.151520,1593.613159
	C446.179504,1607.072876 475.176788,1620.598877 504.220459,1634.024414
	C532.810974,1647.240479 561.454285,1660.342407 590.052429,1673.542114
	C604.504761,1680.212646 618.886963,1687.035400 633.348267,1693.686279
	C637.168701,1695.443237 641.029724,1697.236816 645.471680,1695.162964
	C658.570374,1689.047607 671.725525,1683.053101 684.864868,1677.025024
	C701.245422,1669.509888 717.658813,1662.066040 734.009949,1654.487793
	C762.154236,1641.444092 790.234192,1628.261597 818.391846,1615.247192
	C847.276917,1601.896484 876.231262,1588.695801 905.138916,1575.393799
	C923.136780,1567.111938 941.119324,1558.796509 959.081604,1550.437988
	C987.945374,1537.006592 1016.755310,1523.459106 1045.646484,1510.087158
	C1074.669556,1496.654053 1103.781250,1483.412231 1132.820557,1470.013916
	C1148.898804,1462.595459 1164.870850,1454.946899 1180.957031,1447.545776
	C1208.534668,1434.857178 1236.203247,1422.365723 1263.740845,1409.591431
	C1269.695557,1406.828979 1275.257202,1403.219360 1281.000000,1400.000000
z"/>
<path fill="#000000" opacity="1.000000" stroke="none"
	d="
M1281.000000,503.999969
	C1281.000000,731.693542 1281.000000,959.387024 1280.726440,1187.846558
	C1278.179199,1187.061646 1276.066162,1185.168213 1273.606567,1184.013428
	C1251.741821,1173.747559 1229.819580,1163.604004 1207.906128,1153.441772
	C1190.524414,1145.381104 1173.138794,1137.328735 1155.741577,1129.301636
	C1128.697144,1116.822998 1101.633789,1104.385742 1074.593506,1091.898315
	C1057.633423,1084.065918 1040.713257,1076.147339 1023.753174,1068.314575
	C996.713135,1055.826782 969.640808,1043.408691 942.609070,1030.902588
	C924.922119,1022.719727 907.309998,1014.375061 889.615845,1006.207947
	C863.305847,994.064209 836.934875,982.052612 810.624817,969.908997
	C792.930481,961.742065 775.300964,953.434631 757.634460,945.207336
	C728.870667,931.812012 700.119995,918.388123 671.320984,905.068909
	C662.289551,900.891968 653.120361,897.012939 644.006775,892.529053
	C643.998169,866.761780 643.998352,841.462891 643.994263,816.164062
	C643.993774,813.002014 644.200378,809.812256 643.824036,806.694153
	C643.705261,805.709839 642.009644,804.244446 641.015259,804.227966
	C640.038879,804.211792 638.647461,805.580200 638.154175,806.666321
	C637.650574,807.775085 638.006165,809.279358 638.005737,810.610535
	C637.997253,838.073059 637.991577,865.535583 637.608887,893.001648
	C632.117615,895.340942 626.996887,897.663818 621.888977,900.014648
	C592.198792,913.679504 562.507874,927.343079 532.824585,941.022949
	C515.857239,948.842529 498.898254,956.680176 481.945557,964.531372
	C453.450256,977.728210 424.973145,990.964355 396.469452,1004.143066
	C366.947937,1017.792358 337.403320,1031.391724 307.869812,1045.015015
	C290.905548,1052.840332 273.935394,1060.652832 256.981964,1068.501465
	C228.484741,1081.694336 200.007355,1094.929810 171.505524,1108.112793
	C141.985672,1121.766479 112.449036,1135.383911 82.914963,1149.006836
	C70.338524,1154.807983 57.716923,1160.512329 45.175850,1166.388672
	C32.333378,1172.406372 19.555031,1178.561401 6.773294,1184.707520
	C4.781684,1185.665283 2.921159,1186.895630 1.000006,1188.000000
	C1.000000,960.306458 1.000000,732.612915 1.270525,504.156921
	C4.182510,505.296631 6.603659,507.668152 9.499855,509.027771
	C35.643608,521.301025 61.867630,533.403381 88.074219,545.542664
	C105.445000,553.589050 122.824249,561.617249 140.202454,569.647644
	C171.720749,584.212158 203.240540,598.773438 234.760712,613.333984
	C251.552170,621.090637 268.348663,628.836487 285.137573,636.598633
	C312.383942,649.195435 339.624817,661.804077 366.870209,674.402893
	C383.657776,682.165894 400.462341,689.892151 417.236359,697.684265
	C446.525604,711.290039 475.767578,724.997864 505.084625,738.543457
	C533.358582,751.607117 561.716797,764.488342 590.009460,777.511658
	C604.456299,784.161682 618.824402,790.982727 633.264282,797.648010
	C637.090698,799.414246 640.943604,801.250000 645.371094,799.188232
	C659.933899,792.406616 674.529663,785.695679 689.124695,778.983643
	C718.144226,765.637939 747.176514,752.319946 776.194092,738.970093
	C793.139221,731.174255 810.074402,723.356750 826.999512,715.517517
	C854.371826,702.839111 881.723206,690.115417 909.099976,677.446716
	C939.713623,663.280090 970.359863,649.184021 1000.963867,634.996582
	C1017.009033,627.558411 1032.959351,619.915405 1049.013916,612.497742
	C1076.833130,599.644714 1104.716309,586.930481 1132.540649,574.088318
	C1148.744629,566.609436 1164.853027,558.923096 1181.063354,551.458191
	C1208.750977,538.708069 1236.520874,526.135803 1264.170410,513.304199
	C1269.970337,510.612579 1275.399780,507.122223 1281.000000,503.999969
z"/>
<path fill="#E4CCFF" opacity="1.000000" stroke="none"
	d="
M1281.000000,296.000000
	C1281.000000,299.361298 1281.000000,302.722565 1280.714600,306.721741
	C1277.849487,309.813721 1275.678467,313.124573 1272.623291,314.583008
	C1252.497925,324.189941 1232.175049,333.382416 1211.929932,342.738892
	C1145.449341,373.463654 1078.971313,404.193665 1012.498657,434.935455
	C958.415344,459.947571 904.344910,484.987488 850.262146,510.000763
	C782.732483,541.233215 715.193787,572.446289 647.667236,603.685547
	C643.135925,605.781860 638.758911,605.723633 634.210815,603.613708
	C604.010864,589.604126 573.772278,575.677673 543.557190,561.700745
	C496.875610,540.106506 450.214752,518.467346 403.523407,496.894165
	C326.913239,461.497375 250.283264,426.143341 173.666199,390.761414
	C121.380005,366.615570 69.090057,342.477783 16.835682,318.263275
	C10.900826,315.513062 4.215589,313.647156 1.000000,307.000000
	C1.000000,303.638702 1.000000,300.277435 1.273579,296.764343
	C4.538690,294.696381 7.378541,292.468628 10.551005,290.924011
	C19.081738,286.770477 27.764442,282.930023 36.368900,278.926758
	C54.025787,270.711884 71.662682,262.453979 89.322830,254.246109
	C118.219101,240.816071 147.107346,227.368515 176.036285,214.009171
	C204.075562,201.060638 232.175858,188.244339 260.222504,175.311722
	C278.340881,166.957092 296.391754,158.456146 314.507202,150.095154
	C340.653412,138.027664 366.843506,126.055290 392.990387,113.989250
	C410.817230,105.762665 428.583160,97.404068 446.410797,89.179237
	C468.320953,79.070953 490.288452,69.086777 512.190918,58.961929
	C530.013123,50.723286 547.752380,42.305458 565.571167,34.059422
	C587.327820,23.991062 609.138916,14.040417 630.885193,3.949752
	C632.114929,3.379138 632.970337,2.001842 634.000000,0.999996
	C638.356873,1.000000 642.713806,1.000000 647.225830,1.296924
	C652.960327,4.400042 658.467041,7.363185 664.131348,9.986061
	C693.032532,23.368759 721.985474,36.639610 750.896606,50.000843
	C762.586792,55.403408 774.182495,61.010471 785.880798,66.395012
	C813.934570,79.307648 842.029175,92.131660 870.096497,105.014900
	C887.060608,112.801613 904.013550,120.612602 920.955444,128.447525
	C947.678345,140.805832 974.385986,153.196991 1001.103271,165.567413
	C1018.477173,173.611740 1035.848633,181.661560 1053.235474,189.677567
	C1079.677612,201.868286 1106.141235,214.012283 1132.578369,226.213928
	C1150.111816,234.306244 1167.622925,242.447281 1185.129639,250.597229
	C1214.744385,264.383850 1244.354126,278.180908 1273.943726,292.021179
	C1276.382568,293.161896 1278.651978,294.665161 1281.000000,296.000000
M606.732178,287.383057
	C606.648438,285.769684 606.564636,284.156311 606.476074,282.451965
	C603.710571,282.451965 601.315552,282.451965 598.717834,282.451965
	C598.717834,296.982269 598.717834,311.222351 598.717834,325.682678
	C601.508850,325.682678 604.061829,325.682678 607.003967,325.682678
	C607.003967,317.322693 606.984131,309.208130 607.009644,301.093719
	C607.033997,293.326202 610.689270,289.019043 617.141296,289.079956
	C623.246338,289.137604 626.249023,292.907227 626.281738,300.676270
	C626.316528,308.949677 626.289551,317.223389 626.289551,325.670776
	C629.377930,325.670776 631.939636,325.670776 634.778809,325.670776
	C634.778809,315.309143 635.106018,305.191101 634.658508,295.107452
	C634.381348,288.862885 631.126343,283.836548 624.626526,282.342682
	C618.132385,280.850189 611.994507,281.589630 607.398926,288.093964
	C607.216736,288.146973 607.034485,288.200012 606.732178,287.383057
M801.175293,288.500122
	C801.175293,281.732178 801.175293,274.964264 801.175293,268.085999
	C797.897400,268.085999 795.160583,268.085999 791.856262,268.085999
	C791.856262,274.491028 791.856262,280.654205 791.856262,287.320312
	C779.774170,275.987427 765.274597,283.798920 762.078613,296.301910
	C760.302734,303.249329 760.964172,309.663605 763.620972,316.026398
	C766.558105,323.060822 773.469666,328.041138 780.285645,326.778656
	C784.728760,325.955688 788.764343,322.932159 792.911560,320.928650
	C792.952942,321.702057 793.060120,323.706512 793.163940,325.646820
	C796.023315,325.646820 798.436646,325.646820 801.175293,325.646820
	C801.175293,313.406219 801.175293,301.453156 801.175293,288.500122
M677.825623,322.757538
	C690.603333,330.656494 705.180847,327.117004 708.584106,315.288971
	C704.724304,313.736084 701.702087,313.440094 698.056519,317.043793
	C695.779358,319.294739 690.579773,320.165588 687.215088,319.388641
	C681.467468,318.061462 678.977112,312.964233 678.116638,306.680023
	C688.647034,306.680023 698.903320,306.680023 709.884827,306.680023
	C709.472900,302.746033 709.494080,299.252838 708.684021,295.964417
	C706.865051,288.580688 702.248962,283.532745 694.601196,282.180603
	C686.319275,280.716370 679.077759,282.689056 674.014648,290.050079
	C667.803711,299.079865 668.269531,314.656158 677.825623,322.757538
M556.750122,321.769775
	C567.604919,331.124512 581.036804,326.733368 586.552368,318.896606
	C591.688477,311.599030 590.944519,303.265930 589.170837,295.359558
	C587.350098,287.243378 580.474243,282.358673 572.559875,281.858917
	C562.889465,281.248230 556.249695,284.657074 552.544067,292.726654
	C547.868652,302.908051 548.852173,312.544800 556.750122,321.769775
M751.403320,288.353912
	C748.481995,283.689606 744.096985,281.072479 738.810059,282.002594
	C734.109070,282.829620 729.670288,285.147308 725.145203,286.796356
	C725.064514,285.879150 724.911438,284.139282 724.762329,282.444824
	C722.115723,282.444824 719.864563,282.444824 717.409424,282.444824
	C717.409424,296.964142 717.409424,311.196442 717.409424,325.682251
	C720.224609,325.682251 722.789673,325.682251 725.842102,325.682251
	C725.842102,323.853088 725.841858,322.231476 725.842041,320.609894
	C725.842896,313.617889 725.762024,306.624664 725.869263,299.634277
	C725.964111,293.445923 729.653320,289.204865 734.791687,289.080811
	C741.560852,288.917419 744.961914,292.340973 745.055481,299.483429
	C745.103455,303.145264 745.064697,306.808258 745.064758,310.470734
	C745.064941,315.566864 745.064819,320.662964 745.064819,325.741516
	C748.234619,325.741516 750.690979,325.741516 753.715027,325.741516
	C753.715027,317.781189 753.931702,309.993805 753.631042,302.226471
	C753.459900,297.805176 752.443420,293.416626 751.403320,288.353912
M489.513092,318.366089
	C489.513092,312.592926 489.513092,306.819733 489.513092,300.521881
	C497.978424,300.521881 505.884979,300.521881 513.874817,300.521881
	C513.874817,297.750580 513.874817,295.521362 513.874817,292.906067
	C505.512146,292.906067 497.431427,292.906067 489.365204,292.906067
	C489.365204,286.801025 489.365204,281.098663 489.365204,274.856995
	C498.767670,274.856995 507.814545,274.856995 516.584473,274.856995
	C516.584473,272.204132 516.584473,270.123657 516.584473,268.177551
	C504.512573,268.177551 492.787811,268.177551 481.171448,268.177551
	C481.171448,287.569977 481.171448,306.617218 481.171448,325.588745
	C484.076233,325.588745 486.627167,325.588745 489.512970,325.588745
	C489.512970,323.274963 489.512970,321.298676 489.513092,318.366089
M664.011475,320.437958
	C662.897644,319.925293 661.644592,319.592285 660.700745,318.860382
	C659.042114,317.574127 656.311340,316.109253 656.233337,314.604919
	C655.798035,306.211609 656.024170,297.784027 656.024170,289.267303
	C658.953369,289.114197 661.370911,288.987823 663.750977,288.863434
	C663.750977,286.790649 663.750977,285.049072 663.750977,282.893158
	C661.093018,282.893158 658.685486,282.893158 655.842712,282.893158
	C655.842712,279.071838 655.842712,275.663971 655.842712,272.240295
	C652.668213,272.240295 649.949219,272.240295 646.893921,272.240295
	C646.893921,275.659027 646.893921,278.760498 646.893921,281.916809
	C644.803101,282.107178 643.049927,282.266846 641.315979,282.424744
	C641.315979,284.792145 641.315979,286.851013 641.315979,288.880707
	C643.402710,289.058441 645.165894,289.208618 647.284363,289.389069
	C647.284363,296.943512 647.270508,304.230286 647.287476,311.517029
	C647.316101,323.857910 652.882385,328.209656 665.621643,325.322266
	C665.085693,323.936493 664.576599,322.620026 664.011475,320.437958
M539.587463,282.562164
	C537.272278,284.492310 534.957153,286.422455 532.337097,288.606781
	C532.146484,286.764832 531.968872,285.048859 531.788635,283.307220
	C529.420044,283.307220 527.181580,283.307220 525.115417,283.307220
	C525.115417,297.664764 525.115417,311.707886 525.115417,325.627045
	C527.958313,325.627045 530.376221,325.627045 533.076599,325.627045
	C533.076599,317.018036 533.029968,308.711182 533.091064,300.405060
	C533.142212,293.452393 536.571777,290.080383 543.427612,289.989685
	C544.868225,289.970642 546.306458,289.771393 547.659912,289.662140
	C547.659912,286.881714 547.659912,284.483551 547.659912,281.908752
	C544.989990,282.027618 542.669189,282.130920 539.587463,282.562164
z"/>
<path fill="#BDE3FF" opacity="1.000000" stroke="none"
	d="
M1.000006,1188.460693
	C2.921159,1186.895630 4.781684,1185.665283 6.773294,1184.707520
	C19.555031,1178.561401 32.333378,1172.406372 45.175850,1166.388672
	C57.716923,1160.512329 70.338524,1154.807983 82.914963,1149.006836
	C112.449036,1135.383911 141.985672,1121.766479 171.505524,1108.112793
	C200.007355,1094.929810 228.484741,1081.694336 256.981964,1068.501465
	C273.935394,1060.652832 290.905548,1052.840332 307.869812,1045.015015
	C337.403320,1031.391724 366.947937,1017.792358 396.469452,1004.143066
	C424.973145,990.964355 453.450256,977.728210 481.945557,964.531372
	C498.898254,956.680176 515.857239,948.842529 532.824585,941.022949
	C562.507874,927.343079 592.198792,913.679504 621.888977,900.014648
	C626.996887,897.663818 632.117615,895.340942 637.613220,893.470398
	C637.994019,969.080750 637.994019,1044.225830 637.994019,1120.920898
	C633.130310,1115.920654 629.605957,1111.905273 625.620117,1108.417358
	C624.268433,1107.234497 621.750793,1107.384155 619.765930,1106.924927
	C620.255615,1108.768921 620.186035,1111.130371 621.330933,1112.368286
	C626.529358,1117.988892 632.144714,1123.221069 637.455505,1128.741699
	C639.985291,1131.371582 642.007080,1131.387085 644.545593,1128.743530
	C649.851257,1123.218018 655.470825,1117.989746 660.668213,1112.368286
	C661.815308,1111.127563 661.743469,1108.759766 662.232910,1106.911011
	C660.263062,1107.360718 657.748779,1107.197998 656.425110,1108.374634
	C652.406067,1111.947021 648.847351,1116.037109 645.109375,1119.925659
	C644.744324,1119.680298 644.379333,1119.434814 644.014282,1119.189453
	C644.014282,1043.792114 644.014282,968.394836 644.014282,892.997559
	C653.120361,897.012939 662.289551,900.891968 671.320984,905.068909
	C700.119995,918.388123 728.870667,931.812012 757.634460,945.207336
	C775.300964,953.434631 792.930481,961.742065 810.624817,969.908997
	C836.934875,982.052612 863.305847,994.064209 889.615845,1006.207947
	C907.309998,1014.375061 924.922119,1022.719727 942.609070,1030.902588
	C969.640808,1043.408691 996.713135,1055.826782 1023.753174,1068.314575
	C1040.713257,1076.147339 1057.633423,1084.065918 1074.593506,1091.898315
	C1101.633789,1104.385742 1128.697144,1116.822998 1155.741577,1129.301636
	C1173.138794,1137.328735 1190.524414,1145.381104 1207.906128,1153.441772
	C1229.819580,1163.604004 1251.741821,1173.747559 1273.606567,1184.013428
	C1276.066162,1185.168213 1278.179199,1187.061646 1280.726440,1188.306274
	C1281.000000,1191.692871 1281.000000,1195.385864 1280.663574,1199.608276
	C1277.562134,1202.430664 1275.072754,1205.233154 1271.973877,1206.908325
	C1265.835449,1210.226196 1259.369141,1212.940430 1253.023315,1215.871460
	C1184.133301,1247.690186 1115.229980,1279.480103 1046.351196,1311.323120
	C985.778381,1339.326172 925.243347,1367.411011 864.671143,1395.415405
	C792.470947,1428.796021 720.240601,1462.111450 648.055420,1495.524414
	C643.322815,1497.714844 638.980530,1497.838013 634.204346,1495.623901
	C577.888733,1469.519653 521.525391,1443.518311 465.184082,1417.469360
	C422.436279,1397.705322 379.710815,1377.892944 336.959473,1358.136719
	C282.730774,1333.076416 228.484650,1308.053833 174.248428,1283.009766
	C126.507843,1260.964966 78.691360,1239.081787 31.094120,1216.731812
	C20.740402,1211.869995 8.993052,1209.214233 1.000000,1200.000000
	C1.000000,1196.307129 1.000000,1192.614136 1.000006,1188.460693
M510.235931,1225.933228
	C523.372681,1225.345703 529.771851,1219.477905 529.047729,1208.572266
	C528.588074,1201.649780 524.388733,1197.682495 517.847168,1195.562866
	C525.809204,1191.309570 527.251648,1188.838745 526.096802,1178.995605
	C525.461121,1173.576782 520.264526,1168.632812 513.913086,1168.234619
	C505.172272,1167.686768 496.371338,1168.097534 487.514587,1168.097534
	C487.514587,1187.548950 487.514587,1206.587158 487.514587,1225.933594
	C495.007263,1225.933594 502.149994,1225.933594 510.235931,1225.933228
M794.843628,1204.499878
	C794.843628,1192.404419 794.843628,1180.308960 794.843628,1168.022949
	C791.684143,1168.022949 789.090088,1168.022949 785.934204,1168.022949
	C785.934204,1174.849365 785.934204,1181.512207 785.934204,1188.952759
	C777.382996,1176.706421 760.563660,1181.681763 756.787903,1193.220459
	C754.297729,1200.830322 753.777100,1208.433716 757.026062,1215.956055
	C760.842285,1224.791382 770.239075,1229.246216 778.500244,1225.810547
	C781.217102,1224.680664 783.423584,1222.323608 785.896973,1220.503174
	C785.976379,1222.193970 786.053650,1223.839478 786.138611,1225.647705
	C788.986511,1225.647705 791.715454,1225.647705 794.843567,1225.647705
	C794.843567,1218.743652 794.843567,1212.121704 794.843628,1204.499878
M624.473022,1192.499878
	C624.473022,1203.568359 624.473022,1214.636719 624.473022,1225.729736
	C627.660889,1225.729736 630.099548,1225.729736 633.006470,1225.729736
	C633.006470,1222.087891 633.212463,1218.619751 632.951843,1215.187134
	C632.658508,1211.324463 633.735840,1208.457153 637.596191,1206.736694
	C641.241638,1211.526855 644.857544,1216.280151 648.475525,1221.031738
	C652.681824,1226.556030 654.476562,1227.117188 661.876160,1225.099976
	C655.796936,1216.999146 649.765320,1208.961792 643.775879,1200.980591
	C649.421570,1194.940186 654.675049,1189.319458 659.952759,1183.672852
	C653.197144,1181.407349 648.810486,1183.830322 644.948486,1188.759766
	C641.641235,1192.980957 637.602905,1196.629639 632.955750,1201.510742
	C632.955750,1189.433105 632.955750,1178.734985 632.955750,1168.011719
	C629.978943,1168.011719 627.520752,1168.011719 624.473206,1168.011719
	C624.473206,1175.957031 624.473206,1183.728394 624.473022,1192.499878
M681.734070,1181.865356
	C669.930298,1182.414673 663.372803,1193.216309 663.089600,1204.413452
	C662.795776,1216.032593 671.417114,1226.243896 681.322693,1227.007690
	C692.013062,1227.832153 700.401794,1223.014160 702.080200,1213.913818
	C698.855896,1214.544800 695.416016,1214.233765 693.511719,1215.795166
	C689.512207,1219.074829 685.660889,1221.170410 680.550537,1219.236450
	C674.538452,1216.961182 672.512329,1213.843872 672.461609,1206.679810
	C682.538208,1206.679810 692.624268,1206.679810 702.651062,1206.679810
	C704.076904,1190.508179 695.900635,1181.072754 681.734070,1181.865356
M536.161804,1208.083984
	C532.542297,1216.947144 537.155701,1223.546509 543.495239,1225.776489
	C550.256409,1228.154663 556.525085,1227.332764 561.679932,1221.817261
	C561.955078,1221.522705 562.437500,1221.421875 562.902161,1221.192017
	C563.049805,1222.809570 563.180176,1224.237427 563.309265,1225.651855
	C566.083313,1225.651855 568.500610,1225.651855 571.128662,1225.651855
	C571.128662,1214.908936 571.448853,1204.435059 570.924011,1194.003784
	C570.775818,1191.058838 568.784119,1187.557861 566.548645,1185.488770
	C559.934998,1179.367432 544.971741,1180.829468 539.288757,1187.886597
	C538.205933,1189.231201 538.233643,1191.470215 537.748962,1193.296509
	C540.298157,1193.192749 544.029968,1194.115356 545.176575,1192.794312
	C548.718506,1188.713501 552.990723,1188.610718 557.453918,1189.076538
	C561.207031,1189.468384 562.635986,1192.523071 562.838684,1195.880127
	C563.052551,1199.422119 560.059265,1199.510254 557.628784,1199.888062
	C554.711670,1200.341797 551.708801,1200.375610 548.850830,1201.048950
	C544.270264,1202.128296 539.297424,1202.664917 536.161804,1208.083984
M710.826721,1220.385864
	C710.826721,1222.143921 710.826721,1223.901978 710.826721,1225.676514
	C713.933228,1225.676514 716.349304,1225.676514 719.174805,1225.676514
	C719.174805,1220.139160 719.136414,1214.851807 719.187073,1209.565308
	C719.226929,1205.416504 718.966919,1201.207031 719.581421,1197.136353
	C720.355835,1192.006714 724.773132,1188.738159 729.387817,1189.086182
	C735.195251,1189.524170 738.112366,1192.261719 738.596680,1198.053833
	C738.831543,1200.863159 738.687073,1203.705200 738.690857,1206.532471
	C738.699524,1212.934570 738.693604,1219.336548 738.693604,1225.643799
	C741.926025,1225.643799 744.341064,1225.643799 746.970032,1225.643799
	C746.970032,1215.236938 747.282654,1205.105591 746.872314,1195.003784
	C746.537292,1186.754639 740.670105,1182.027222 732.345764,1181.763306
	C726.340698,1181.573120 722.180603,1184.458984 718.331665,1190.082886
	C718.079590,1186.871826 717.934143,1185.019165 717.797729,1183.281494
	C715.289307,1183.281494 713.209412,1183.281494 710.826721,1183.281494
	C710.826721,1195.515259 710.826721,1207.464600 710.826721,1220.385864
M579.835754,1211.399170
	C583.184570,1222.399292 591.356140,1228.282349 601.504761,1226.999756
	C610.496094,1225.863403 616.587646,1219.957764 616.612427,1212.031494
	C613.694458,1212.868408 610.577637,1210.433716 607.792297,1214.383789
	C605.902405,1217.063843 601.613403,1219.838989 598.706848,1219.541992
	C595.421082,1219.206299 592.112549,1215.829224 589.531189,1213.097168
	C588.001526,1211.478271 587.672668,1208.592529 587.126404,1206.202637
	C585.716614,1200.034790 590.379395,1191.235596 595.870972,1189.413696
	C601.747192,1187.464233 606.008057,1189.778076 609.853149,1197.527466
	C612.088928,1196.895874 614.500549,1196.214478 616.912170,1195.533203
	C615.866089,1192.985596 615.327942,1190.032349 613.678467,1187.966553
	C608.775452,1181.825806 601.829285,1180.873657 594.654968,1182.192017
	C586.867065,1183.623047 581.894165,1188.834839 580.177124,1196.320923
	C579.131531,1200.879639 579.747070,1205.819336 579.835754,1211.399170
z"/>
<path fill="#FFC7C2" opacity="1.000000" stroke="none"
	d="
M644.015259,1792.992554
	C653.264709,1797.104614 662.566833,1801.102905 671.754028,1805.349731
	C700.427429,1818.604614 729.057678,1831.952881 757.704102,1845.266235
	C775.239502,1853.415771 792.758545,1861.600342 810.312195,1869.710205
	C836.786377,1881.941528 863.293945,1894.100464 889.768738,1906.330322
	C907.323608,1914.439575 924.831299,1922.650635 942.386475,1930.759155
	C969.446472,1943.257812 996.536743,1955.690674 1023.598938,1968.184570
	C1040.717896,1976.087891 1057.802612,1984.065308 1074.914429,1991.984253
	C1097.286865,2002.337402 1119.670776,2012.665894 1142.050171,2023.003906
	C1163.989014,2033.138550 1185.937134,2043.252930 1207.865234,2053.410889
	C1229.796997,2063.570801 1251.727051,2073.735107 1273.604492,2084.010986
	C1276.064575,2085.166504 1278.178101,2087.060303 1280.726196,2088.305664
	C1281.000000,2091.361328 1281.000000,2094.722656 1280.724854,2098.735352
	C1277.708740,2101.896973 1275.376831,2105.280518 1272.164917,2106.785400
	C1232.674927,2125.287598 1193.057251,2143.517578 1153.470215,2161.812500
	C1117.963013,2178.222412 1082.445923,2194.611084 1046.945190,2211.034912
	C992.257141,2236.334961 937.588379,2261.677002 882.894470,2286.964111
	C836.059814,2308.617676 789.195679,2330.207764 742.355103,2351.848145
	C710.774353,2366.438965 679.281982,2381.225586 647.544250,2395.466064
	C643.921692,2397.091797 638.440369,2397.061523 634.730896,2395.556641
	C621.790771,2390.305664 609.243958,2384.083496 596.559265,2378.205322
	C567.410767,2364.697510 538.285583,2351.139404 509.120850,2337.666748
	C458.957733,2314.493652 408.761841,2291.391602 358.598572,2268.218994
	C329.433868,2254.746094 300.323517,2241.155762 271.158478,2227.683838
	C216.613052,2202.488525 162.044678,2177.342529 107.487846,2152.171875
	C77.260941,2138.226074 47.014477,2124.322266 16.833647,2110.277344
	C10.910107,2107.520752 4.176163,2105.699951 1.000000,2099.000000
	C1.000000,2095.638672 1.000000,2092.277344 1.000024,2088.458008
	C2.922000,2086.894531 4.783138,2085.662598 6.775805,2084.703857
	C19.558968,2078.552734 32.335373,2072.385742 45.183590,2066.372314
	C58.016453,2060.366455 70.927040,2054.526367 83.810066,2048.627686
	C111.475357,2035.960815 139.162064,2023.340454 166.804749,2010.624390
	C178.661499,2005.170166 190.403870,1999.467773 202.244354,1993.977661
	C231.752731,1980.295410 261.293060,1966.682129 290.810181,1953.018799
	C319.159851,1939.895752 347.498352,1926.748535 375.838287,1913.604492
	C393.373138,1905.472168 410.887970,1897.296387 428.435760,1889.192017
	C454.891632,1876.973755 481.368103,1864.800171 507.836365,1852.608643
	C525.681641,1844.388916 543.528748,1836.173096 561.373596,1827.952271
	C586.660400,1816.303345 611.945862,1804.651367 637.613037,1793.465820
	C637.994202,1869.066895 637.994202,1944.203003 637.994202,2019.338989
	C633.116699,2015.923462 629.601624,2011.906738 625.623047,2008.418823
	C624.273743,2007.236084 621.753601,2007.389038 619.768494,2006.931641
	C620.256287,2008.776855 620.183411,2011.140625 621.327942,2012.378540
	C626.525146,2017.998657 632.138367,2023.231079 637.450195,2028.749023
	C639.978149,2031.375000 642.009399,2031.393921 644.547119,2028.753784
	C649.854797,2023.232056 655.471802,2018.002930 660.667969,2012.382080
	C661.815674,2011.140747 661.742859,2008.770996 662.231934,2006.920776
	C660.261169,2007.367676 657.745422,2007.200806 656.421570,2008.376099
	C652.403931,2011.943481 648.847290,2016.030029 645.111023,2019.914185
	C644.745789,2019.662598 644.380493,2019.411011 644.015259,2019.159302
	C644.015259,1943.770386 644.015259,1868.381470 644.015259,1792.992554
M546.617188,2090.146484
	C544.000977,2077.273926 537.370117,2069.539795 526.200317,2068.352783
	C517.857422,2067.465820 509.344666,2068.177979 500.814667,2068.177979
	C500.814667,2087.559814 500.814667,2106.618652 500.814667,2125.865967
	C508.306641,2125.865967 515.478027,2126.212402 522.603821,2125.789551
	C535.062378,2125.050781 543.605957,2117.931396 546.192505,2105.858154
	C547.219177,2101.065430 546.750977,2095.952637 546.617188,2090.146484
M642.015564,2091.047852
	C642.627930,2096.926270 642.484985,2103.010010 644.016785,2108.638184
	C646.823181,2118.949219 654.704285,2125.990479 666.421143,2126.870361
	C678.423828,2127.771729 688.770020,2121.065918 692.021606,2110.309570
	C693.698730,2104.761963 693.777222,2098.631104 693.938660,2092.746094
	C694.262878,2080.926270 686.171997,2070.558105 674.935303,2067.750488
	C662.769470,2064.710693 650.974915,2069.864746 645.520813,2080.855469
	C644.064453,2083.790283 643.299072,2087.067871 642.015564,2091.047852
M736.828125,2086.672363
	C728.003906,2079.158691 719.511780,2080.051270 711.296509,2088.665527
	C711.053650,2085.932129 710.897705,2084.177002 710.750549,2082.520752
	C707.978577,2082.520752 705.590393,2082.520752 703.237183,2082.520752
	C703.237183,2102.824951 703.237183,2122.759277 703.237183,2142.668213
	C711.009766,2143.397217 711.009888,2143.397217 711.010132,2136.113281
	C711.010254,2130.754395 711.010132,2125.395508 711.010132,2119.165039
	C722.553528,2130.388672 736.025513,2128.238525 740.951904,2115.055664
	C744.572083,2105.368164 744.084106,2095.766602 736.828125,2086.672363
M554.016663,2110.845947
	C556.714355,2118.617920 561.218323,2124.351074 569.731079,2126.542480
	C577.536621,2128.551758 591.506897,2124.140869 592.330383,2115.269043
	C588.475769,2113.698975 585.425415,2113.332275 581.933167,2117.145020
	C578.828003,2120.535645 573.835205,2121.206055 569.234802,2118.709717
	C564.613953,2116.202148 562.329468,2112.438965 562.871948,2106.567627
	C573.051270,2106.567627 582.957458,2106.567627 592.892395,2106.567627
	C592.992676,2104.583496 593.106323,2103.097900 593.136719,2101.610596
	C593.339783,2091.656982 587.185791,2083.635742 578.165344,2082.071045
	C567.760437,2080.266113 558.569092,2085.059326 555.665222,2094.758057
	C554.227112,2099.561035 554.517334,2104.881348 554.016663,2110.845947
M782.409546,2090.342773
	C778.160400,2082.738770 769.803040,2079.761963 760.424927,2082.512207
	C754.003967,2084.395264 750.135742,2088.786133 750.002625,2094.342773
	C749.858704,2100.351074 752.890442,2104.042236 760.036621,2106.188965
	C763.965027,2107.368896 768.092163,2107.951416 771.929504,2109.351807
	C775.890625,2110.797119 776.546265,2115.015869 773.598328,2117.716309
	C770.112061,2120.909912 761.991333,2120.623535 758.837891,2117.196289
	C754.962891,2112.984863 753.739624,2112.837891 749.082947,2116.022461
	C753.050842,2126.121338 763.398499,2129.777588 775.106140,2125.217529
	C781.249451,2122.824707 784.278137,2118.698730 784.144348,2112.904053
	C784.017639,2107.413330 780.964172,2103.968750 774.253174,2102.025391
	C770.268677,2100.871582 766.051819,2100.332031 762.279541,2098.720703
	C760.644226,2098.021973 758.753540,2095.143311 758.999451,2093.571045
	C759.265930,2091.866699 761.741455,2089.490234 763.509766,2089.243896
	C767.623718,2088.670166 772.021667,2088.065918 775.070618,2092.702393
	C776.963379,2095.580566 781.224670,2094.414795 782.409546,2090.342773
M602.310364,2082.984619
	C600.577881,2082.984619 598.845459,2082.984619 596.629761,2082.984619
	C601.645630,2096.920898 606.374512,2110.160400 611.230286,2123.353271
	C611.607605,2124.378662 612.747314,2125.592041 613.750061,2125.840576
	C619.238831,2127.199463 621.266968,2125.949707 623.231628,2120.529053
	C624.361572,2117.411377 625.596008,2114.331055 626.714539,2111.209473
	C630.000610,2102.039307 633.252197,2092.856689 636.547119,2083.595459
	C628.019348,2082.153564 628.020203,2082.153809 625.584106,2089.531738
	C623.815674,2094.887451 622.042236,2100.241211 620.275635,2105.597412
	C619.230286,2108.767090 618.193787,2111.939697 616.707947,2116.468262
	C613.105469,2105.425293 610.119385,2095.934570 606.831360,2086.549805
	C606.327454,2085.111572 604.430603,2084.161377 602.310364,2082.984619
z"/>
<path fill="#0D99FF" opacity="1.000000" stroke="none"
	d="
M1.000000,1200.468628
	C8.993052,1209.214233 20.740402,1211.869995 31.094120,1216.731812
	C78.691360,1239.081787 126.507843,1260.964966 174.248428,1283.009766
	C228.484650,1308.053833 282.730774,1333.076416 336.959473,1358.136719
	C379.710815,1377.892944 422.436279,1397.705322 465.184082,1417.469360
	C521.525391,1443.518311 577.888733,1469.519653 634.204346,1495.623901
	C638.980530,1497.838013 643.322815,1497.714844 648.055420,1495.524414
	C720.240601,1462.111450 792.470947,1428.796021 864.671143,1395.415405
	C925.243347,1367.411011 985.778381,1339.326172 1046.351196,1311.323120
	C1115.229980,1279.480103 1184.133301,1247.690186 1253.023315,1215.871460
	C1259.369141,1212.940430 1265.835449,1210.226196 1271.973877,1206.908325
	C1275.072754,1205.233154 1277.562134,1202.430664 1280.663574,1200.068848
	C1281.000000,1266.354248 1281.000000,1332.708496 1281.000000,1399.531372
	C1275.257202,1403.219360 1269.695557,1406.828979 1263.740845,1409.591431
	C1236.203247,1422.365723 1208.534668,1434.857178 1180.957031,1447.545776
	C1164.870850,1454.946899 1148.898804,1462.595459 1132.820557,1470.013916
	C1103.781250,1483.412231 1074.669556,1496.654053 1045.646484,1510.087158
	C1016.755310,1523.459106 987.945374,1537.006592 959.081604,1550.437988
	C941.119324,1558.796509 923.136780,1567.111938 905.138916,1575.393799
	C876.231262,1588.695801 847.276917,1601.896484 818.391846,1615.247192
	C790.234192,1628.261597 762.154236,1641.444092 734.009949,1654.487793
	C717.658813,1662.066040 701.245422,1669.509888 684.864868,1677.025024
	C671.725525,1683.053101 658.570374,1689.047607 645.471680,1695.162964
	C641.029724,1697.236816 637.168701,1695.443237 633.348267,1693.686279
	C618.886963,1687.035400 604.504761,1680.212646 590.052429,1673.542114
	C561.454285,1660.342407 532.810974,1647.240479 504.220459,1634.024414
	C475.176788,1620.598877 446.179504,1607.072876 417.151520,1593.613159
	C400.357727,1585.826294 383.541931,1578.086670 366.738770,1570.320068
	C335.194672,1555.740112 303.653625,1541.153687 272.109161,1526.574585
	C255.305450,1518.808228 238.497986,1511.049927 221.690628,1503.291382
	C194.562332,1490.768677 167.430206,1478.254272 140.304520,1465.725952
	C122.910042,1457.691772 105.519966,1449.648071 88.135811,1441.591675
	C61.909828,1429.437500 35.666328,1417.320312 9.503143,1405.032349
	C6.605681,1403.671509 4.183676,1401.298340 1.270586,1399.697266
	C1.000000,1333.645752 1.000000,1267.291504 1.000000,1200.468628
z"/>
<path fill="#9747FF" opacity="1.000000" stroke="none"
	d="
M1.000000,307.468658
	C4.215589,313.647156 10.900826,315.513062 16.835682,318.263275
	C69.090057,342.477783 121.380005,366.615570 173.666199,390.761414
	C250.283264,426.143341 326.913239,461.497375 403.523407,496.894165
	C450.214752,518.467346 496.875610,540.106506 543.557190,561.700745
	C573.772278,575.677673 604.010864,589.604126 634.210815,603.613708
	C638.758911,605.723633 643.135925,605.781860 647.667236,603.685547
	C715.193787,572.446289 782.732483,541.233215 850.262146,510.000763
	C904.344910,484.987488 958.415344,459.947571 1012.498657,434.935455
	C1078.971313,404.193665 1145.449341,373.463654 1211.929932,342.738892
	C1232.175049,333.382416 1252.497925,324.189941 1272.623291,314.583008
	C1275.678467,313.124573 1277.849487,309.813721 1280.714600,307.179810
	C1281.000000,372.354218 1281.000000,437.708466 1281.000000,503.531311
	C1275.399780,507.122223 1269.970337,510.612579 1264.170410,513.304199
	C1236.520874,526.135803 1208.750977,538.708069 1181.063354,551.458191
	C1164.853027,558.923096 1148.744629,566.609436 1132.540649,574.088318
	C1104.716309,586.930481 1076.833130,599.644714 1049.013916,612.497742
	C1032.959351,619.915405 1017.009033,627.558411 1000.963867,634.996582
	C970.359863,649.184021 939.713623,663.280090 909.099976,677.446716
	C881.723206,690.115417 854.371826,702.839111 826.999512,715.517517
	C810.074402,723.356750 793.139221,731.174255 776.194092,738.970093
	C747.176514,752.319946 718.144226,765.637939 689.124695,778.983643
	C674.529663,785.695679 659.933899,792.406616 645.371094,799.188232
	C640.943604,801.250000 637.090698,799.414246 633.264282,797.648010
	C618.824402,790.982727 604.456299,784.161682 590.009460,777.511658
	C561.716797,764.488342 533.358582,751.607117 505.084625,738.543457
	C475.767578,724.997864 446.525604,711.290039 417.236359,697.684265
	C400.462341,689.892151 383.657776,682.165894 366.870209,674.402893
	C339.624817,661.804077 312.383942,649.195435 285.137573,636.598633
	C268.348663,628.836487 251.552170,621.090637 234.760712,613.333984
	C203.240540,598.773438 171.720749,584.212158 140.202454,569.647644
	C122.824249,561.617249 105.445000,553.589050 88.074219,545.542664
	C61.867630,533.403381 35.643608,521.301025 9.499855,509.027771
	C6.603659,507.668152 4.182510,505.296631 1.270525,503.697205
	C1.000000,438.645782 1.000000,373.291534 1.000000,307.468658
z"/>
<path fill="#FF7C70" opacity="1.000000" stroke="none"
	d="
M1.000000,2099.468750
	C4.176163,2105.699951 10.910107,2107.520752 16.833647,2110.277344
	C47.014477,2124.322266 77.260941,2138.226074 107.487846,2152.171875
	C162.044678,2177.342529 216.613052,2202.488525 271.158478,2227.683838
	C300.323517,2241.155762 329.433868,2254.746094 358.598572,2268.218994
	C408.761841,2291.391602 458.957733,2314.493652 509.120850,2337.666748
	C538.285583,2351.139404 567.410767,2364.697510 596.559265,2378.205322
	C609.243958,2384.083496 621.790771,2390.305664 634.730896,2395.556641
	C638.440369,2397.061523 643.921692,2397.091797 647.544250,2395.466064
	C679.281982,2381.225586 710.774353,2366.438965 742.355103,2351.848145
	C789.195679,2330.207764 836.059814,2308.617676 882.894470,2286.964111
	C937.588379,2261.677002 992.257141,2236.334961 1046.945190,2211.034912
	C1082.445923,2194.611084 1117.963013,2178.222412 1153.470215,2161.812500
	C1193.057251,2143.517578 1232.674927,2125.287598 1272.164917,2106.785400
	C1275.376831,2105.280518 1277.708740,2101.896973 1280.724854,2099.193359
	C1281.000000,2164.354248 1281.000000,2229.708252 1280.730347,2295.228516
	C1278.350342,2297.248535 1276.517578,2299.677002 1274.080444,2300.854248
	C1264.600342,2305.434814 1254.907959,2309.573242 1245.331665,2313.957764
	C1223.500854,2323.953857 1201.676514,2333.964600 1179.878540,2344.031982
	C1157.634155,2354.305664 1135.431885,2364.670654 1113.197021,2374.964844
	C1091.553955,2384.984863 1069.892090,2394.964111 1048.239868,2404.964111
	C1025.849487,2415.304443 1003.453308,2425.632080 981.073364,2435.994629
	C958.839111,2446.290039 936.637085,2456.654785 914.392761,2466.928467
	C892.594727,2476.995850 870.745605,2486.952881 848.947571,2497.020264
	C826.703186,2507.293701 804.501465,2517.659180 782.266663,2527.953125
	C760.623413,2537.973145 738.961426,2547.952393 717.309082,2557.952637
	C694.917480,2568.294434 672.517822,2578.618896 650.162109,2589.037842
	C648.918213,2589.617920 648.045471,2590.994385 647.000000,2592.000000
	C643.307068,2592.000000 639.614197,2592.000000 635.765137,2591.706299
	C632.028625,2589.600830 628.494873,2587.688721 624.859924,2585.993896
	C607.804260,2578.040283 590.729431,2570.127686 573.645264,2562.235352
	C546.547913,2549.717285 519.431152,2537.241211 492.335266,2524.719971
	C474.809570,2516.621338 457.320251,2508.443848 439.789917,2500.355469
	C413.427185,2488.191650 387.029510,2476.103516 360.672424,2463.927490
	C342.996307,2455.762207 325.384644,2447.457520 307.707733,2439.293945
	C281.348785,2427.120361 254.943558,2415.047119 228.585464,2402.872070
	C210.909851,2394.707520 193.293365,2386.415283 175.629654,2378.224854
	C147.368164,2365.120605 119.081413,2352.071045 90.820160,2338.966309
	C63.592030,2326.340576 36.368614,2313.704590 9.186104,2300.981445
	C6.310240,2299.635498 3.721782,2297.675293 1.000011,2296.000000
	C1.000000,2230.645752 1.000000,2165.291748 1.000000,2099.468750
z"/>
<path fill="#000000" opacity="1.000000" stroke="none"
	d="
M1.000011,2296.468750
	C3.721782,2297.675293 6.310240,2299.635498 9.186104,2300.981445
	C36.368614,2313.704590 63.592030,2326.340576 90.820160,2338.966309
	C119.081413,2352.071045 147.368164,2365.120605 175.629654,2378.224854
	C193.293365,2386.415283 210.909851,2394.707520 228.585464,2402.872070
	C254.943558,2415.047119 281.348785,2427.120361 307.707733,2439.293945
	C325.384644,2447.457520 342.996307,2455.762207 360.672424,2463.927490
	C387.029510,2476.103516 413.427185,2488.191650 439.789917,2500.355469
	C457.320251,2508.443848 474.809570,2516.621338 492.335266,2524.719971
	C519.431152,2537.241211 546.547913,2549.717285 573.645264,2562.235352
	C590.729431,2570.127686 607.804260,2578.040283 624.859924,2585.993896
	C628.494873,2587.688721 632.028625,2589.600830 635.304443,2591.706299
	C423.766144,2592.000000 212.532303,2592.000000 1.000000,2592.000000
	C1.000000,2493.645996 1.000000,2395.291748 1.000011,2296.468750
z"/>
<path fill="#000000" opacity="1.000000" stroke="none"
	d="
M647.468628,2592.000000
	C648.045471,2590.994385 648.918213,2589.617920 650.162109,2589.037842
	C672.517822,2578.618896 694.917480,2568.294434 717.309082,2557.952637
	C738.961426,2547.952393 760.623413,2537.973145 782.266663,2527.953125
	C804.501465,2517.659180 826.703186,2507.293701 848.947571,2497.020264
	C870.745605,2486.952881 892.594727,2476.995850 914.392761,2466.928467
	C936.637085,2456.654785 958.839111,2446.290039 981.073364,2435.994629
	C1003.453308,2425.632080 1025.849487,2415.304443 1048.239868,2404.964111
	C1069.892090,2394.964111 1091.553955,2384.984863 1113.197021,2374.964844
	C1135.431885,2364.670654 1157.634155,2354.305664 1179.878540,2344.031982
	C1201.676514,2333.964600 1223.500854,2323.953857 1245.331665,2313.957764
	C1254.907959,2309.573242 1264.600342,2305.434814 1274.080444,2300.854248
	C1276.517578,2299.677002 1278.350342,2297.248535 1280.730347,2295.697266
	C1281.000000,2394.620361 1281.000000,2493.240479 1281.000000,2592.000000
	C1069.979126,2592.000000 858.958191,2592.000000 647.468628,2592.000000
z"/>
<path fill="#000000" opacity="1.000000" stroke="none"
	d="
M1281.000000,295.531342
	C1278.651978,294.665161 1276.382568,293.161896 1273.943726,292.021179
	C1244.354126,278.180908 1214.744385,264.383850 1185.129639,250.597229
	C1167.622925,242.447281 1150.111816,234.306244 1132.578369,226.213928
	C1106.141235,214.012283 1079.677612,201.868286 1053.235474,189.677567
	C1035.848633,181.661560 1018.477173,173.611740 1001.103271,165.567413
	C974.385986,153.196991 947.678345,140.805832 920.955444,128.447525
	C904.013550,120.612602 887.060608,112.801613 870.096497,105.014900
	C842.029175,92.131660 813.934570,79.307648 785.880798,66.395012
	C774.182495,61.010471 762.586792,55.403408 750.896606,50.000843
	C721.985474,36.639610 693.032532,23.368759 664.131348,9.986061
	C658.467041,7.363185 652.960327,4.400042 647.690430,1.296924
	C858.900513,1.000000 1069.801025,1.000000 1281.000000,1.000000
	C1281.000000,99.020691 1281.000000,197.041687 1281.000000,295.531342
z"/>
<path fill="#000000" opacity="1.000000" stroke="none"
	d="
M633.531372,0.999996
	C632.970337,2.001842 632.114929,3.379138 630.885193,3.949752
	C609.138916,14.040417 587.327820,23.991062 565.571167,34.059422
	C547.752380,42.305458 530.013123,50.723286 512.190918,58.961929
	C490.288452,69.086777 468.320953,79.070953 446.410797,89.179237
	C428.583160,97.404068 410.817230,105.762665 392.990387,113.989250
	C366.843506,126.055290 340.653412,138.027664 314.507202,150.095154
	C296.391754,158.456146 278.340881,166.957092 260.222504,175.311722
	C232.175858,188.244339 204.075562,201.060638 176.036285,214.009171
	C147.107346,227.368515 118.219101,240.816071 89.322830,254.246109
	C71.662682,262.453979 54.025787,270.711884 36.368900,278.926758
	C27.764442,282.930023 19.081738,286.770477 10.551005,290.924011
	C7.378541,292.468628 4.538690,294.696381 1.273579,296.306274
	C1.000000,197.713028 1.000000,99.426056 1.000000,1.000000
	C211.687546,1.000000 422.375122,1.000000 633.531372,0.999996
z"/>
<path fill="#767676" opacity="1.000000" stroke="none"
	d="
M644.007446,1792.524414
	C644.015259,1868.381470 644.015259,1943.770386 644.015259,2019.159302
	C644.380493,2019.411011 644.745789,2019.662598 645.111023,2019.914185
	C648.847290,2016.030029 652.403931,2011.943481 656.421570,2008.376099
	C657.745422,2007.200806 660.261169,2007.367676 662.231934,2006.920776
	C661.742859,2008.770996 661.815674,2011.140747 660.667969,2012.382080
	C655.471802,2018.002930 649.854797,2023.232056 644.547119,2028.753784
	C642.009399,2031.393921 639.978149,2031.375000 637.450195,2028.749023
	C632.138367,2023.231079 626.525146,2017.998657 621.327942,2012.378540
	C620.183411,2011.140625 620.256287,2008.776855 619.768494,2006.931641
	C621.753601,2007.389038 624.273743,2007.236084 625.623047,2008.418823
	C629.601624,2011.906738 633.116699,2015.923462 637.994202,2019.338989
	C637.994202,1944.203003 637.994202,1869.066895 637.989502,1793.461914
	C637.991150,1764.198486 637.996887,1735.404175 638.005432,1706.609863
	C638.005859,1705.278687 637.650269,1703.774170 638.153992,1702.665527
	C638.647400,1701.579590 640.039368,1700.211182 641.015686,1700.227539
	C642.010193,1700.244263 643.526428,1701.641113 643.833069,1702.713989
	C644.317749,1704.409668 643.994446,1706.339233 643.994690,1708.169800
	C643.998108,1736.131958 643.998596,1764.094116 644.007446,1792.524414
z"/>
<path fill="#767676" opacity="1.000000" stroke="none"
	d="
M644.006775,892.529053
	C644.014282,968.394836 644.014282,1043.792114 644.014282,1119.189453
	C644.379333,1119.434814 644.744324,1119.680298 645.109375,1119.925659
	C648.847351,1116.037109 652.406067,1111.947021 656.425110,1108.374634
	C657.748779,1107.197998 660.263062,1107.360718 662.232910,1106.911011
	C661.743469,1108.759766 661.815308,1111.127563 660.668213,1112.368286
	C655.470825,1117.989746 649.851257,1123.218018 644.545593,1128.743530
	C642.007080,1131.387085 639.985291,1131.371582 637.455505,1128.741699
	C632.144714,1123.221069 626.529358,1117.988892 621.330933,1112.368286
	C620.186035,1111.130371 620.255615,1108.768921 619.765930,1106.924927
	C621.750793,1107.384155 624.268433,1107.234497 625.620117,1108.417358
	C629.605957,1111.905273 633.130310,1115.920654 637.994019,1120.920898
	C637.994019,1044.225830 637.994019,969.080750 637.989685,893.466858
	C637.991577,865.535583 637.997253,838.073059 638.005737,810.610535
	C638.006165,809.279358 637.650574,807.775085 638.154175,806.666321
	C638.647461,805.580200 640.038879,804.211792 641.015259,804.227966
	C642.009644,804.244446 643.705261,805.709839 643.824036,806.694153
	C644.200378,809.812256 643.993774,813.002014 643.994263,816.164062
	C643.998352,841.462891 643.998169,866.761780 644.006775,892.529053
z"/>
<path fill="#212122" opacity="1.000000" stroke="none"
	d="
M801.175293,289.000122
	C801.175293,301.453156 801.175293,313.406219 801.175293,325.646820
	C798.436646,325.646820 796.023315,325.646820 793.163940,325.646820
	C793.060120,323.706512 792.952942,321.702057 792.911560,320.928650
	C788.764343,322.932159 784.728760,325.955688 780.285645,326.778656
	C773.469666,328.041138 766.558105,323.060822 763.620972,316.026398
	C760.964172,309.663605 760.302734,303.249329 762.078613,296.301910
	C765.274597,283.798920 779.774170,275.987427 791.856262,287.320312
	C791.856262,280.654205 791.856262,274.491028 791.856262,268.085999
	C795.160583,268.085999 797.897400,268.085999 801.175293,268.085999
	C801.175293,274.964264 801.175293,281.732178 801.175293,289.000122
M770.341187,299.320435
	C770.242737,302.472717 769.946594,305.634155 770.092224,308.775116
	C770.309387,313.459839 776.164124,319.599609 780.483521,319.987793
	C785.229004,320.414276 791.006775,316.069489 791.879272,310.828125
	C792.421021,307.573120 792.334290,304.128296 791.983093,300.826813
	C791.141052,292.910736 788.257935,289.481659 782.596191,289.002594
	C776.481873,288.485229 772.905823,291.345612 770.341187,299.320435
z"/>
<path fill="#222122" opacity="1.000000" stroke="none"
	d="
M677.550049,322.519531
	C668.269531,314.656158 667.803711,299.079865 674.014648,290.050079
	C679.077759,282.689056 686.319275,280.716370 694.601196,282.180603
	C702.248962,283.532745 706.865051,288.580688 708.684021,295.964417
	C709.494080,299.252838 709.472900,302.746033 709.884827,306.680023
	C698.903320,306.680023 688.647034,306.680023 678.116638,306.680023
	C678.977112,312.964233 681.467468,318.061462 687.215088,319.388641
	C690.579773,320.165588 695.779358,319.294739 698.056519,317.043793
	C701.702087,313.440094 704.724304,313.736084 708.584106,315.289062
	C705.180847,327.117004 690.603333,330.656494 677.550049,322.519531
M698.181396,299.998291
	C699.101807,299.138550 700.838135,298.245880 700.804993,297.424683
	C700.638428,293.301300 696.589111,289.499207 692.295227,288.945587
	C685.103149,288.018311 680.725159,291.403961 678.259521,299.998627
	C684.634644,299.998627 690.938782,299.998627 698.181396,299.998291
z"/>
<path fill="#222223" opacity="1.000000" stroke="none"
	d="
M556.494019,321.514038
	C548.852173,312.544800 547.868652,302.908051 552.544067,292.726654
	C556.249695,284.657074 562.889465,281.248230 572.559875,281.858917
	C580.474243,282.358673 587.350098,287.243378 589.170837,295.359558
	C590.944519,303.265930 591.688477,311.599030 586.552368,318.896606
	C581.036804,326.733368 567.604919,331.124512 556.494019,321.514038
M580.190002,313.334137
	C580.480225,308.083588 581.333557,302.785126 580.891968,297.596832
	C580.500854,293.000519 577.278137,289.856689 572.467102,289.037201
	C567.168640,288.134705 563.255432,290.046417 560.870361,294.648468
	C558.222107,299.758514 557.261292,304.908478 559.374390,310.651611
	C561.051453,315.209869 563.644043,318.942291 568.231323,319.791443
	C572.998169,320.673889 577.287231,318.601593 580.190002,313.334137
z"/>
<path fill="#201F20" opacity="1.000000" stroke="none"
	d="
M607.949097,287.947205
	C611.994507,281.589630 618.132385,280.850189 624.626526,282.342682
	C631.126343,283.836548 634.381348,288.862885 634.658508,295.107452
	C635.106018,305.191101 634.778809,315.309143 634.778809,325.670776
	C631.939636,325.670776 629.377930,325.670776 626.289551,325.670776
	C626.289551,317.223389 626.316528,308.949677 626.281738,300.676270
	C626.249023,292.907227 623.246338,289.137604 617.141296,289.079956
	C610.689270,289.019043 607.033997,293.326202 607.009644,301.093719
	C606.984131,309.208130 607.003967,317.322693 607.003967,325.682678
	C604.061829,325.682678 601.508850,325.682678 598.717834,325.682678
	C598.717834,311.222351 598.717834,296.982269 598.717834,282.451965
	C601.315552,282.451965 603.710571,282.451965 606.476074,282.451965
	C606.564636,284.156311 606.648438,285.769684 606.885498,288.075562
	C607.342224,288.494415 607.645630,288.220795 607.949097,287.947205
z"/>
<path fill="#212021" opacity="1.000000" stroke="none"
	d="
M751.605469,288.683624
	C752.443420,293.416626 753.459900,297.805176 753.631042,302.226471
	C753.931702,309.993805 753.715027,317.781189 753.715027,325.741516
	C750.690979,325.741516 748.234619,325.741516 745.064819,325.741516
	C745.064819,320.662964 745.064941,315.566864 745.064758,310.470734
	C745.064697,306.808258 745.103455,303.145264 745.055481,299.483429
	C744.961914,292.340973 741.560852,288.917419 734.791687,289.080811
	C729.653320,289.204865 725.964111,293.445923 725.869263,299.634277
	C725.762024,306.624664 725.842896,313.617889 725.842041,320.609894
	C725.841858,322.231476 725.842102,323.853088 725.842102,325.682251
	C722.789673,325.682251 720.224609,325.682251 717.409424,325.682251
	C717.409424,311.196442 717.409424,296.964142 717.409424,282.444824
	C719.864563,282.444824 722.115723,282.444824 724.762329,282.444824
	C724.911438,284.139282 725.064514,285.879150 725.145203,286.796356
	C729.670288,285.147308 734.109070,282.829620 738.810059,282.002594
	C744.096985,281.072479 748.481995,283.689606 751.605469,288.683624
z"/>
<path fill="#1E1E1F" opacity="1.000000" stroke="none"
	d="
M489.513031,318.844238
	C489.512970,321.298676 489.512970,323.274963 489.512970,325.588745
	C486.627167,325.588745 484.076233,325.588745 481.171448,325.588745
	C481.171448,306.617218 481.171448,287.569977 481.171448,268.177551
	C492.787811,268.177551 504.512573,268.177551 516.584473,268.177551
	C516.584473,270.123657 516.584473,272.204132 516.584473,274.856995
	C507.814545,274.856995 498.767670,274.856995 489.365204,274.856995
	C489.365204,281.098663 489.365204,286.801025 489.365204,292.906067
	C497.431427,292.906067 505.512146,292.906067 513.874817,292.906067
	C513.874817,295.521362 513.874817,297.750580 513.874817,300.521881
	C505.884979,300.521881 497.978424,300.521881 489.513092,300.521881
	C489.513092,306.819733 489.513092,312.592926 489.513031,318.844238
z"/>
<path fill="#212121" opacity="1.000000" stroke="none"
	d="
M664.039490,320.870758
	C664.576599,322.620026 665.085693,323.936493 665.621643,325.322266
	C652.882385,328.209656 647.316101,323.857910 647.287476,311.517029
	C647.270508,304.230286 647.284363,296.943512 647.284363,289.389069
	C645.165894,289.208618 643.402710,289.058441 641.315979,288.880707
	C641.315979,286.851013 641.315979,284.792145 641.315979,282.424744
	C643.049927,282.266846 644.803101,282.107178 646.893921,281.916809
	C646.893921,278.760498 646.893921,275.659027 646.893921,272.240295
	C649.949219,272.240295 652.668213,272.240295 655.842712,272.240295
	C655.842712,275.663971 655.842712,279.071838 655.842712,282.893158
	C658.685486,282.893158 661.093018,282.893158 663.750977,282.893158
	C663.750977,285.049072 663.750977,286.790649 663.750977,288.863434
	C661.370911,288.987823 658.953369,289.114197 656.024170,289.267303
	C656.024170,297.784027 655.798035,306.211609 656.233337,314.604919
	C656.311340,316.109253 659.042114,317.574127 660.700745,318.860382
	C661.644592,319.592285 662.897644,319.925293 664.039490,320.870758
z"/>
<path fill="#201F20" opacity="1.000000" stroke="none"
	d="
M539.967896,282.398193
	C542.669189,282.130920 544.989990,282.027618 547.659912,281.908752
	C547.659912,284.483551 547.659912,286.881714 547.659912,289.662140
	C546.306458,289.771393 544.868225,289.970642 543.427612,289.989685
	C536.571777,290.080383 533.142212,293.452393 533.091064,300.405060
	C533.029968,308.711182 533.076599,317.018036 533.076599,325.627045
	C530.376221,325.627045 527.958313,325.627045 525.115417,325.627045
	C525.115417,311.707886 525.115417,297.664764 525.115417,283.307220
	C527.181580,283.307220 529.420044,283.307220 531.788635,283.307220
	C531.968872,285.048859 532.146484,286.764832 532.337097,288.606781
	C534.957153,286.422455 537.272278,284.492310 539.967896,282.398193
z"/>
<path fill="#7A6F86" opacity="1.000000" stroke="none"
	d="
M607.674011,288.020569
	C607.645630,288.220795 607.342224,288.494415 606.945557,288.510559
	C607.034485,288.200012 607.216736,288.146973 607.674011,288.020569
z"/>
<path fill="#202020" opacity="1.000000" stroke="none"
	d="
M509.764343,1225.933350
	C502.149994,1225.933594 495.007263,1225.933594 487.514587,1225.933594
	C487.514587,1206.587158 487.514587,1187.548950 487.514587,1168.097534
	C496.371338,1168.097534 505.172272,1167.686768 513.913086,1168.234619
	C520.264526,1168.632812 525.461121,1173.576782 526.096802,1178.995605
	C527.251648,1188.838745 525.809204,1191.309570 517.847168,1195.562866
	C524.388733,1197.682495 528.588074,1201.649780 529.047729,1208.572266
	C529.771851,1219.477905 523.372681,1225.345703 509.764343,1225.933350
M515.428284,1217.204956
	C520.490601,1215.286255 521.172852,1210.714966 519.641174,1206.934937
	C518.484985,1204.081543 514.941040,1200.992920 511.956879,1200.352417
	C506.934448,1199.274414 501.512634,1200.057129 496.310638,1200.057129
	C496.310638,1206.656128 496.310638,1212.711548 496.310638,1219.647095
	C502.705536,1218.922241 508.703705,1218.242432 515.428284,1217.204956
M517.067566,1188.160522
	C519.425049,1181.607056 517.105164,1176.126465 511.708405,1175.916504
	C506.612518,1175.718140 501.502869,1175.873779 496.283447,1175.873779
	C496.283447,1181.832764 496.283447,1187.210205 496.283447,1192.929810
	C499.024139,1192.929810 501.486755,1192.866943 503.945068,1192.942993
	C508.683899,1193.089600 513.322754,1193.010986 517.067566,1188.160522
z"/>
<path fill="#202121" opacity="1.000000" stroke="none"
	d="
M794.843628,1204.999756
	C794.843567,1212.121704 794.843567,1218.743652 794.843567,1225.647705
	C791.715454,1225.647705 788.986511,1225.647705 786.138611,1225.647705
	C786.053650,1223.839478 785.976379,1222.193970 785.896973,1220.503174
	C783.423584,1222.323608 781.217102,1224.680664 778.500244,1225.810547
	C770.239075,1229.246216 760.842285,1224.791382 757.026062,1215.956055
	C753.777100,1208.433716 754.297729,1200.830322 756.787903,1193.220459
	C760.563660,1181.681763 777.382996,1176.706421 785.934204,1188.952759
	C785.934204,1181.512207 785.934204,1174.849365 785.934204,1168.022949
	C789.090088,1168.022949 791.684143,1168.022949 794.843628,1168.022949
	C794.843628,1180.308960 794.843628,1192.404419 794.843628,1204.999756
M784.741272,1212.860718
	C785.117493,1208.114502 786.092346,1203.320068 785.715332,1198.634521
	C785.264221,1193.027222 780.924500,1189.343506 775.935242,1188.986450
	C770.448608,1188.593506 767.048279,1191.167114 764.589905,1196.741211
	C762.210205,1202.136719 762.719971,1207.238770 764.983948,1212.420532
	C766.753845,1216.471558 769.646851,1219.664185 774.064026,1219.838745
	C778.471252,1220.012573 782.379395,1218.036133 784.741272,1212.860718
z"/>
<path fill="#202121" opacity="1.000000" stroke="none"
	d="
M624.473145,1191.999878
	C624.473206,1183.728394 624.473206,1175.957031 624.473206,1168.011719
	C627.520752,1168.011719 629.978943,1168.011719 632.955750,1168.011719
	C632.955750,1178.734985 632.955750,1189.433105 632.955750,1201.510742
	C637.602905,1196.629639 641.641235,1192.980957 644.948486,1188.759766
	C648.810486,1183.830322 653.197144,1181.407349 659.952759,1183.672852
	C654.675049,1189.319458 649.421570,1194.940186 643.775879,1200.980591
	C649.765320,1208.961792 655.796936,1216.999146 661.876160,1225.099976
	C654.476562,1227.117188 652.681824,1226.556030 648.475525,1221.031738
	C644.857544,1216.280151 641.241638,1211.526855 637.596191,1206.736694
	C633.735840,1208.457153 632.658508,1211.324463 632.951843,1215.187134
	C633.212463,1218.619751 633.006470,1222.087891 633.006470,1225.729736
	C630.099548,1225.729736 627.660889,1225.729736 624.473022,1225.729736
	C624.473022,1214.636719 624.473022,1203.568359 624.473145,1191.999878
z"/>
<path fill="#212222" opacity="1.000000" stroke="none"
	d="
M682.180603,1181.845947
	C695.900635,1181.072754 704.076904,1190.508179 702.651062,1206.679810
	C692.624268,1206.679810 682.538208,1206.679810 672.461609,1206.679810
	C672.512329,1213.843872 674.538452,1216.961182 680.550537,1219.236450
	C685.660889,1221.170410 689.512207,1219.074829 693.511719,1215.795166
	C695.416016,1214.233765 698.855896,1214.544800 702.080200,1213.913818
	C700.401794,1223.014160 692.013062,1227.832153 681.322693,1227.007690
	C671.417114,1226.243896 662.795776,1216.032593 663.089600,1204.413452
	C663.372803,1193.216309 669.930298,1182.414673 682.180603,1181.845947
M692.074280,1192.489746
	C688.358582,1188.270142 683.787903,1187.832642 678.925110,1189.872437
	C674.398499,1191.771484 672.592407,1195.569702 672.061340,1200.018677
	C679.849854,1200.018677 687.101868,1200.018677 694.785645,1200.018677
	C693.964783,1197.404785 693.282288,1195.231323 692.074280,1192.489746
z"/>
<path fill="#212223" opacity="1.000000" stroke="none"
	d="
M536.366577,1207.746094
	C539.297424,1202.664917 544.270264,1202.128296 548.850830,1201.048950
	C551.708801,1200.375610 554.711670,1200.341797 557.628784,1199.888062
	C560.059265,1199.510254 563.052551,1199.422119 562.838684,1195.880127
	C562.635986,1192.523071 561.207031,1189.468384 557.453918,1189.076538
	C552.990723,1188.610718 548.718506,1188.713501 545.176575,1192.794312
	C544.029968,1194.115356 540.298157,1193.192749 537.749023,1193.296509
	C538.233643,1191.470215 538.205933,1189.231201 539.288757,1187.886597
	C544.971741,1180.829468 559.934998,1179.367432 566.548645,1185.488770
	C568.784119,1187.557861 570.775818,1191.058838 570.924011,1194.003784
	C571.448853,1204.435059 571.128662,1214.908936 571.128662,1225.651855
	C568.500610,1225.651855 566.083313,1225.651855 563.309265,1225.651855
	C563.180176,1224.237427 563.049805,1222.809570 562.902161,1221.192017
	C562.437500,1221.421875 561.955078,1221.522705 561.679932,1221.817261
	C556.525085,1227.332764 550.256409,1228.154663 543.495239,1225.776489
	C537.155701,1223.546509 532.542297,1216.947144 536.366577,1207.746094
M546.075684,1218.674683
	C550.866882,1220.919434 555.500366,1220.713013 559.593384,1217.260132
	C563.451721,1214.005249 563.338684,1209.653442 562.590088,1205.173340
	C557.567200,1206.118530 552.792664,1206.622314 548.267273,1207.965576
	C542.228821,1209.757935 541.406372,1213.372681 546.075684,1218.674683
z"/>
<path fill="#202021" opacity="1.000000" stroke="none"
	d="
M710.826721,1219.899902
	C710.826721,1207.464600 710.826721,1195.515259 710.826721,1183.281494
	C713.209412,1183.281494 715.289307,1183.281494 717.797729,1183.281494
	C717.934143,1185.019165 718.079590,1186.871826 718.331665,1190.082886
	C722.180603,1184.458984 726.340698,1181.573120 732.345764,1181.763306
	C740.670105,1182.027222 746.537292,1186.754639 746.872314,1195.003784
	C747.282654,1205.105591 746.970032,1215.236938 746.970032,1225.643799
	C744.341064,1225.643799 741.926025,1225.643799 738.693604,1225.643799
	C738.693604,1219.336548 738.699524,1212.934570 738.690857,1206.532471
	C738.687073,1203.705200 738.831543,1200.863159 738.596680,1198.053833
	C738.112366,1192.261719 735.195251,1189.524170 729.387817,1189.086182
	C724.773132,1188.738159 720.355835,1192.006714 719.581421,1197.136353
	C718.966919,1201.207031 719.226929,1205.416504 719.187073,1209.565308
	C719.136414,1214.851807 719.174805,1220.139160 719.174805,1225.676514
	C716.349304,1225.676514 713.933228,1225.676514 710.826721,1225.676514
	C710.826721,1223.901978 710.826721,1222.143921 710.826721,1219.899902
z"/>
<path fill="#222324" opacity="1.000000" stroke="none"
	d="
M579.726074,1210.993530
	C579.747070,1205.819336 579.131531,1200.879639 580.177124,1196.320923
	C581.894165,1188.834839 586.867065,1183.623047 594.654968,1182.192017
	C601.829285,1180.873657 608.775452,1181.825806 613.678467,1187.966553
	C615.327942,1190.032349 615.866089,1192.985596 616.912170,1195.533203
	C614.500549,1196.214478 612.088928,1196.895874 609.853149,1197.527466
	C606.008057,1189.778076 601.747192,1187.464233 595.870972,1189.413696
	C590.379395,1191.235596 585.716614,1200.034790 587.126404,1206.202637
	C587.672668,1208.592529 588.001526,1211.478271 589.531189,1213.097168
	C592.112549,1215.829224 595.421082,1219.206299 598.706848,1219.541992
	C601.613403,1219.838989 605.902405,1217.063843 607.792297,1214.383789
	C610.577637,1210.433716 613.694458,1212.868408 616.612427,1212.031494
	C616.587646,1219.957764 610.496094,1225.863403 601.504761,1226.999756
	C591.356140,1228.282349 583.184570,1222.399292 579.726074,1210.993530
z"/>
<path fill="#212020" opacity="1.000000" stroke="none"
	d="
M546.790283,2090.565918
	C546.750977,2095.952637 547.219177,2101.065430 546.192505,2105.858154
	C543.605957,2117.931396 535.062378,2125.050781 522.603821,2125.789551
	C515.478027,2126.212402 508.306641,2125.865967 500.814667,2125.865967
	C500.814667,2106.618652 500.814667,2087.559814 500.814667,2068.177979
	C509.344666,2068.177979 517.857422,2067.465820 526.200317,2068.352783
	C537.370117,2069.539795 544.000977,2077.273926 546.790283,2090.565918
M509.415680,2117.994141
	C515.360291,2120.988770 530.777039,2117.259521 534.499756,2112.022461
	C539.184692,2105.432129 539.773865,2089.369385 535.032593,2082.495117
	C530.548767,2075.994141 519.639038,2073.260254 509.321747,2076.210693
	C509.321747,2089.772949 509.321747,2103.421875 509.415680,2117.994141
z"/>
<path fill="#232221" opacity="1.000000" stroke="none"
	d="
M642.115967,2090.618164
	C643.299072,2087.067871 644.064453,2083.790283 645.520813,2080.855469
	C650.974915,2069.864746 662.769470,2064.710693 674.935303,2067.750488
	C686.171997,2070.558105 694.262878,2080.926270 693.938660,2092.746094
	C693.777222,2098.631104 693.698730,2104.761963 692.021606,2110.309570
	C688.770020,2121.065918 678.423828,2127.771729 666.421143,2126.870361
	C654.704285,2125.990479 646.823181,2118.949219 644.016785,2108.638184
	C642.484985,2103.010010 642.627930,2096.926270 642.115967,2090.618164
M678.182068,2078.130371
	C667.135071,2072.070557 658.882019,2075.345703 654.648926,2082.399902
	C649.145325,2091.570312 649.078186,2101.282959 654.239563,2110.697998
	C657.257080,2116.202393 662.399231,2119.125244 668.601562,2118.876953
	C674.885681,2118.625977 680.348206,2115.858643 682.853394,2109.722412
	C684.245300,2106.313232 684.617615,2102.423584 685.061157,2098.704102
	C685.966309,2091.114258 685.048950,2083.983398 678.182068,2078.130371
z"/>
<path fill="#232221" opacity="1.000000" stroke="none"
	d="
M737.074524,2086.941895
	C744.084106,2095.766602 744.572083,2105.368164 740.951904,2115.055664
	C736.025513,2128.238525 722.553528,2130.388672 711.010132,2119.165039
	C711.010132,2125.395508 711.010254,2130.754395 711.010132,2136.113281
	C711.009888,2143.397217 711.009766,2143.397217 703.237183,2142.668213
	C703.237183,2122.759277 703.237183,2102.824951 703.237183,2082.520752
	C705.590393,2082.520752 707.978577,2082.520752 710.750549,2082.520752
	C710.897705,2084.177002 711.053650,2085.932129 711.296509,2088.665527
	C719.511780,2080.051270 728.003906,2079.158691 737.074524,2086.941895
M725.404480,2119.122314
	C731.332214,2117.560303 733.391235,2112.926514 733.977295,2107.579590
	C734.656921,2101.379883 734.610718,2095.087402 728.888184,2090.838379
	C723.635742,2086.938477 715.789307,2088.816650 713.332275,2094.906982
	C711.847595,2098.587402 710.980713,2102.860107 711.180847,2106.798340
	C711.497314,2113.023438 717.254456,2121.753174 725.404480,2119.122314
z"/>
<path fill="#232222" opacity="1.000000" stroke="none"
	d="
M554.021118,2110.406738
	C554.517334,2104.881348 554.227112,2099.561035 555.665222,2094.758057
	C558.569092,2085.059326 567.760437,2080.266113 578.165344,2082.071045
	C587.185791,2083.635742 593.339783,2091.656982 593.136719,2101.610596
	C593.106323,2103.097900 592.992676,2104.583496 592.892395,2106.567627
	C582.957458,2106.567627 573.051270,2106.567627 562.871948,2106.567627
	C562.329468,2112.438965 564.613953,2116.202148 569.234802,2118.709717
	C573.835205,2121.206055 578.828003,2120.535645 581.933167,2117.145020
	C585.425415,2113.332275 588.475769,2113.698975 592.330383,2115.269043
	C591.506897,2124.140869 577.536621,2128.551758 569.731079,2126.542480
	C561.218323,2124.351074 556.714355,2118.617920 554.021118,2110.406738
M568.160339,2090.286865
	C566.026306,2093.133545 563.892334,2095.980225 561.049561,2099.772461
	C570.247681,2099.772461 577.542236,2099.772461 584.871948,2099.772461
	C583.766602,2090.384766 577.958435,2086.940674 568.160339,2090.286865
z"/>
<path fill="#232222" opacity="1.000000" stroke="none"
	d="
M782.598938,2090.684570
	C781.224670,2094.414795 776.963379,2095.580566 775.070618,2092.702393
	C772.021667,2088.065918 767.623718,2088.670166 763.509766,2089.243896
	C761.741455,2089.490234 759.265930,2091.866699 758.999451,2093.571045
	C758.753540,2095.143311 760.644226,2098.021973 762.279541,2098.720703
	C766.051819,2100.332031 770.268677,2100.871582 774.253174,2102.025391
	C780.964172,2103.968750 784.017639,2107.413330 784.144348,2112.904053
	C784.278137,2118.698730 781.249451,2122.824707 775.106140,2125.217529
	C763.398499,2129.777588 753.050842,2126.121338 749.082947,2116.022461
	C753.739624,2112.837891 754.962891,2112.984863 758.837891,2117.196289
	C761.991333,2120.623535 770.112061,2120.909912 773.598328,2117.716309
	C776.546265,2115.015869 775.890625,2110.797119 771.929504,2109.351807
	C768.092163,2107.951416 763.965027,2107.368896 760.036621,2106.188965
	C752.890442,2104.042236 749.858704,2100.351074 750.002625,2094.342773
	C750.135742,2088.786133 754.003967,2084.395264 760.424927,2082.512207
	C769.803040,2079.761963 778.160400,2082.738770 782.598938,2090.684570
z"/>
<path fill="#252323" opacity="1.000000" stroke="none"
	d="
M602.744141,2082.984863
	C604.430603,2084.161377 606.327454,2085.111572 606.831360,2086.549805
	C610.119385,2095.934570 613.105469,2105.425293 616.707947,2116.468262
	C618.193787,2111.939697 619.230286,2108.767090 620.275635,2105.597412
	C622.042236,2100.241211 623.815674,2094.887451 625.584106,2089.531738
	C628.020203,2082.153809 628.019348,2082.153564 636.547119,2083.595459
	C633.252197,2092.856689 630.000610,2102.039307 626.714539,2111.209473
	C625.596008,2114.331055 624.361572,2117.411377 623.231628,2120.529053
	C621.266968,2125.949707 619.238831,2127.199463 613.750061,2125.840576
	C612.747314,2125.592041 611.607605,2124.378662 611.230286,2123.353271
	C606.374512,2110.160400 601.645630,2096.920898 596.629761,2082.984619
	C598.845459,2082.984619 600.577881,2082.984619 602.744141,2082.984863
z"/>
<path fill="#E2CAFC" opacity="1.000000" stroke="none"
	d="
M770.501831,298.934265
	C772.905823,291.345612 776.481873,288.485229 782.596191,289.002594
	C788.257935,289.481659 791.141052,292.910736 791.983093,300.826813
	C792.334290,304.128296 792.421021,307.573120 791.879272,310.828125
	C791.006775,316.069489 785.229004,320.414276 780.483521,319.987793
	C776.164124,319.599609 770.309387,313.459839 770.092224,308.775116
	C769.946594,305.634155 770.242737,302.472717 770.501831,298.934265
z"/>
<path fill="#E1C9FB" opacity="1.000000" stroke="none"
	d="
M697.712158,299.998474
	C690.938782,299.998627 684.634644,299.998627 678.259521,299.998627
	C680.725159,291.403961 685.103149,288.018311 692.295227,288.945587
	C696.589111,289.499207 700.638428,293.301300 700.804993,297.424683
	C700.838135,298.245880 699.101807,299.138550 697.712158,299.998474
z"/>
<path fill="#E2CAFC" opacity="1.000000" stroke="none"
	d="
M580.036743,313.698547
	C577.287231,318.601593 572.998169,320.673889 568.231323,319.791443
	C563.644043,318.942291 561.051453,315.209869 559.374390,310.651611
	C557.261292,304.908478 558.222107,299.758514 560.870361,294.648468
	C563.255432,290.046417 567.168640,288.134705 572.467102,289.037201
	C577.278137,289.856689 580.500854,293.000519 580.891968,297.596832
	C581.333557,302.785126 580.480225,308.083588 580.036743,313.698547
z"/>
<path fill="#BCE2FD" opacity="1.000000" stroke="none"
	d="
M515.065063,1217.383789
	C508.703705,1218.242432 502.705536,1218.922241 496.310638,1219.647095
	C496.310638,1212.711548 496.310638,1206.656128 496.310638,1200.057129
	C501.512634,1200.057129 506.934448,1199.274414 511.956879,1200.352417
	C514.941040,1200.992920 518.484985,1204.081543 519.641174,1206.934937
	C521.172852,1210.714966 520.490601,1215.286255 515.065063,1217.383789
z"/>
<path fill="#BBE1FC" opacity="1.000000" stroke="none"
	d="
M516.863037,1188.501709
	C513.322754,1193.010986 508.683899,1193.089600 503.945068,1192.942993
	C501.486755,1192.866943 499.024139,1192.929810 496.283447,1192.929810
	C496.283447,1187.210205 496.283447,1181.832764 496.283447,1175.873779
	C501.502869,1175.873779 506.612518,1175.718140 511.708405,1175.916504
	C517.105164,1176.126465 519.425049,1181.607056 516.863037,1188.501709
z"/>
<path fill="#BBE1FC" opacity="1.000000" stroke="none"
	d="
M784.528137,1213.194092
	C782.379395,1218.036133 778.471252,1220.012573 774.064026,1219.838745
	C769.646851,1219.664185 766.753845,1216.471558 764.983948,1212.420532
	C762.719971,1207.238770 762.210205,1202.136719 764.589905,1196.741211
	C767.048279,1191.167114 770.448608,1188.593506 775.935242,1188.986450
	C780.924500,1189.343506 785.264221,1193.027222 785.715332,1198.634521
	C786.092346,1203.320068 785.117493,1208.114502 784.528137,1213.194092
z"/>
<path fill="#BADFFA" opacity="1.000000" stroke="none"
	d="
M692.337036,1192.773804
	C693.282288,1195.231323 693.964783,1197.404785 694.785645,1200.018677
	C687.101868,1200.018677 679.849854,1200.018677 672.061340,1200.018677
	C672.592407,1195.569702 674.398499,1191.771484 678.925110,1189.872437
	C683.787903,1187.832642 688.358582,1188.270142 692.337036,1192.773804
z"/>
<path fill="#B9DEF9" opacity="1.000000" stroke="none"
	d="
M545.757935,1218.428955
	C541.406372,1213.372681 542.228821,1209.757935 548.267273,1207.965576
	C552.792664,1206.622314 557.567200,1206.118530 562.590088,1205.173340
	C563.338684,1209.653442 563.451721,1214.005249 559.593384,1217.260132
	C555.500366,1220.713013 550.866882,1220.919434 545.757935,1218.428955
z"/>
<path fill="#FEC6C1" opacity="1.000000" stroke="none"
	d="
M509.368713,2117.532471
	C509.321747,2103.421875 509.321747,2089.772949 509.321747,2076.210693
	C519.639038,2073.260254 530.548767,2075.994141 535.032593,2082.495117
	C539.773865,2089.369385 539.184692,2105.432129 534.499756,2112.022461
	C530.777039,2117.259521 515.360291,2120.988770 509.368713,2117.532471
z"/>
<path fill="#FDC6C1" opacity="1.000000" stroke="none"
	d="
M678.480591,2078.356445
	C685.048950,2083.983398 685.966309,2091.114258 685.061157,2098.704102
	C684.617615,2102.423584 684.245300,2106.313232 682.853394,2109.722412
	C680.348206,2115.858643 674.885681,2118.625977 668.601562,2118.876953
	C662.399231,2119.125244 657.257080,2116.202393 654.239563,2110.697998
	C649.078186,2101.282959 649.145325,2091.570312 654.648926,2082.399902
	C658.882019,2075.345703 667.135071,2072.070557 678.480591,2078.356445
z"/>
<path fill="#FDC5C0" opacity="1.000000" stroke="none"
	d="
M725.117798,2119.395020
	C717.254456,2121.753174 711.497314,2113.023438 711.180847,2106.798340
	C710.980713,2102.860107 711.847595,2098.587402 713.332275,2094.906982
	C715.789307,2088.816650 723.635742,2086.938477 728.888184,2090.838379
	C734.610718,2095.087402 734.656921,2101.379883 733.977295,2107.579590
	C733.391235,2112.926514 731.332214,2117.560303 725.117798,2119.395020
z"/>
<path fill="#FBC4BF" opacity="1.000000" stroke="none"
	d="
M568.514648,2090.104004
	C577.958435,2086.940674 583.766602,2090.384766 584.871948,2099.772461
	C577.542236,2099.772461 570.247681,2099.772461 561.049561,2099.772461
	C563.892334,2095.980225 566.026306,2093.133545 568.514648,2090.104004
z"/>
</svg>